<svg xmlns="http://www.w3.org/2000/svg" viewBox="0 0 23 28"><defs><style>.b77ae79e-60bd-4f77-a2ae-4fa1138c745b{isolation:isolate;}.ac8285dd-ee31-40b3-94f3-9cb1b66c31b2{fill:#afb1c4;}.ad0a6238-f17f-42ea-b670-ec3df9a14f4e{fill:#f8f7fb;}</style></defs><title>icon</title><g id="a2c31a02-526c-4ae8-a583-e92e4f22d381" data-name="Layer 2"><g id="be5874df-24b4-4a20-917e-98ee828710bd" data-name="Artboard 1" class="b77ae79e-60bd-4f77-a2ae-4fa1138c745b"><g id="b0e12b22-188b-402c-af02-ef30cee22dde" data-name="Rounded Rectangle 13 copie 5"><path class="ac8285dd-ee31-40b3-94f3-9cb1b66c31b2" d="M13.91,9.09,14,0H2A2,2,0,0,0,0,2V26a2,2,0,0,0,2,2H21a2,2,0,0,0,2-2V9Z"/></g><g id="ec2bc15b-4051-4218-be43-6cc51a4cb4d4" data-name="Rectangle 75 copie 5"><polygon class="ac8285dd-ee31-40b3-94f3-9cb1b66c31b2" points="17 0 17 7 23 7 17 0"/></g><g id="b63e48ae-da70-4d44-b0a0-4475976a5a2e" data-name="Rounded Rectangle 14 copie 6"><path class="ad0a6238-f17f-42ea-b670-ec3df9a14f4e" d="M18,15H5a1,1,0,0,0,0,2H18a1,1,0,0,0,0-2Z"/></g><g id="bf6561c8-fd1a-426b-9680-67851931e3ce" data-name="Rounded Rectangle 14 copie 6"><path class="ad0a6238-f17f-42ea-b670-ec3df9a14f4e" d="M18,21H5a1,1,0,0,0,0,2H18a1,1,0,0,0,0-2Z"/></g></g></g></svg>