<svg xmlns="http://www.w3.org/2000/svg" viewBox="0 0 101.63 103.48"><defs><style>.fe592b23-ba0c-4d69-b203-bbc563104cc1{fill:#7e4cad;}.f1cf8871-af25-448f-b6ec-7853120742ed,.fe592b23-ba0c-4d69-b203-bbc563104cc1{opacity:0.22;}.f1cf8871-af25-448f-b6ec-7853120742ed{fill:#a9acf6;}.e5428dfe-e114-447a-b568-25a984c080f7{fill:#373956;stroke:#373956;stroke-miterlimit:10;stroke-width:0.75px;}</style></defs><title>icon1</title><g id="b98aa9af-625e-449f-bc67-0402f1f84795" data-name="Layer 2"><g id="ad9fc1bc-9021-4715-8fec-eea6b62ef0ef" data-name="layer 1"><circle class="fe592b23-ba0c-4d69-b203-bbc563104cc1" cx="60.21" cy="41.42" r="41.42"/><circle class="f1cf8871-af25-448f-b6ec-7853120742ed" cx="75.84" cy="69" r="24.55"/><path class="e5428dfe-e114-447a-b568-25a984c080f7" d="M82.49,73.63a1.44,1.44,0,0,0-2,.51,39,39,0,0,1-2.19,3.28,1.44,1.44,0,0,0,.3,2,1.39,1.39,0,0,0,.86.29,1.44,1.44,0,0,0,1.17-.58A38.88,38.88,0,0,0,83,75.62,1.44,1.44,0,0,0,82.49,73.63Z"/><path class="e5428dfe-e114-447a-b568-25a984c080f7" d="M73,83.21c-.7.61-1.42,1.2-2.17,1.76h0a37,37,0,0,1-21,7.41V86.49a1.46,1.46,0,1,0-2.91,0v5.89a37.06,37.06,0,0,1-9.54-1.59,1.46,1.46,0,1,0-.85,2.79,40,40,0,0,0,10.39,1.71v6.36a1.46,1.46,0,0,0,2.91,0V95.29a39.85,39.85,0,0,0,22.69-8h0c.8-.61,1.58-1.24,2.34-1.9A1.46,1.46,0,1,0,73,83.21Z"/><path class="e5428dfe-e114-447a-b568-25a984c080f7" d="M29.11,87.09a37,37,0,0,1-18-30.53H17a1.46,1.46,0,1,0,0-2.91H1.83a1.46,1.46,0,0,0,0,2.91H8.19a39.9,39.9,0,0,0,19.42,33,1.38,1.38,0,0,0,.75.21,1.45,1.45,0,0,0,.75-2.7Z"/><path class="e5428dfe-e114-447a-b568-25a984c080f7" d="M94.92,53.65H88.56a39.89,39.89,0,0,0-6.84-21.08,1.45,1.45,0,1,0-2.41,1.63,37.06,37.06,0,0,1,6.34,19.45H79.76a1.46,1.46,0,1,0,0,2.91h5.9a37.13,37.13,0,0,1-1.09,7.72c-.23.91-.49,1.8-.78,2.68a1.46,1.46,0,0,0,.91,1.85,1.53,1.53,0,0,0,.47.07,1.44,1.44,0,0,0,1.37-1c.32-1,.61-1.92.85-2.9a39.83,39.83,0,0,0,1.18-8.43h6.35a1.46,1.46,0,1,0,0-2.91Z"/><path class="e5428dfe-e114-447a-b568-25a984c080f7" d="M10.26,47.73a1.84,1.84,0,0,0,.33,0A1.46,1.46,0,0,0,12,46.64,37.12,37.12,0,0,1,46.92,17.83v5.89a1.46,1.46,0,1,0,2.91,0V17.83A37,37,0,0,1,69.07,24a1.46,1.46,0,0,0,1.62-2.42,40,40,0,0,0-20.86-6.69V8.56a1.46,1.46,0,1,0-2.91,0v6.37A40,40,0,0,0,9.17,46,1.46,1.46,0,0,0,10.26,47.73Z"/><path class="e5428dfe-e114-447a-b568-25a984c080f7" d="M73.1,55.1a25,25,0,0,0-.83-6.39,1.45,1.45,0,0,0-2.81.75A21.76,21.76,0,1,1,54,34a1.45,1.45,0,0,0,1.78-1,1.46,1.46,0,0,0-1-1.79,25,25,0,0,0-6.4-.83A24.73,24.73,0,1,0,73.1,55.1Z"/></g></g></svg>