<svg xmlns="http://www.w3.org/2000/svg" viewBox="0 0 96.75 103.86"><defs><style>.ef46dac5-c47d-4dc3-859a-364cd516e2a7{fill:#7e4cad;}.ade481bc-51d2-4909-8b3d-5d76fad24c30,.ef46dac5-c47d-4dc3-859a-364cd516e2a7{opacity:0.22;}.ade481bc-51d2-4909-8b3d-5d76fad24c30{fill:#a9acf6;}.a8a8487e-cc80-42da-acff-6e2afc7fe0c1{fill:#373956;stroke:#373956;stroke-miterlimit:10;stroke-width:0.75px;}</style></defs><title>icon3</title><g id="be6af7fc-9a05-4b5e-a8c1-6aa12f232815" data-name="Layer 2"><g id="a8dc2f56-7e0b-4dc0-a206-96bcfc0a072d" data-name="layer 1"><circle class="ef46dac5-c47d-4dc3-859a-364cd516e2a7" cx="52.38" cy="41.42" r="41.42"/><circle class="ade481bc-51d2-4909-8b3d-5d76fad24c30" cx="68" cy="65.98" r="24.55"/><path class="a8a8487e-cc80-42da-acff-6e2afc7fe0c1" d="M13,30.61A36.5,36.5,0,1,1,49.55,90.5a1.51,1.51,0,0,0,.4,3,1.83,1.83,0,0,0,.4,0,39.23,39.23,0,0,0,9.9-4.28L74.16,103a1.48,1.48,0,0,0,1.06.45,1.52,1.52,0,0,0,1.07-2.58L62.82,87.44A39.71,39.71,0,0,0,72,78.21L93.8,100a1.5,1.5,0,0,0,1.07.45,1.48,1.48,0,0,0,1.06-.45,1.5,1.5,0,0,0,0-2.13L73.71,75.64A39.49,39.49,0,0,0,10.78,28.57a1.51,1.51,0,0,0,.09,2.13A1.5,1.5,0,0,0,13,30.61Z"/><path class="a8a8487e-cc80-42da-acff-6e2afc7fe0c1" d="M39.89,94.81a1.51,1.51,0,0,0,0-3A36.51,36.51,0,0,1,7.6,38.26a1.51,1.51,0,1,0-2.66-1.41,39.53,39.53,0,0,0,35,58Z"/><path class="a8a8487e-cc80-42da-acff-6e2afc7fe0c1" d="M48.22,46.56a1.52,1.52,0,0,0-2.11.32L37.27,59.43,33.53,55.1a1.51,1.51,0,0,0-2.43,1.8l5,6a1.51,1.51,0,0,0,2.42,0L48.54,48.67A1.51,1.51,0,0,0,48.22,46.56Z"/><path class="a8a8487e-cc80-42da-acff-6e2afc7fe0c1" d="M43,29.13a26.34,26.34,0,0,0-3.21-.19,25.92,25.92,0,1,0,11.47,2.67,1.27,1.27,0,0,0-1.13,2.28,23.48,23.48,0,1,1-7.44-2.22A1.28,1.28,0,0,0,43,29.13Z"/></g></g></svg>