<svg xmlns="http://www.w3.org/2000/svg" viewBox="0 0 124.5 80.38"><defs><style>.b5fcf62e-3186-4301-bfac-f8a3be35b0b2{fill:#e5deec;}.e20ff317-390f-494f-b63a-7f6077c50dfd,.e8f4496d-6637-4f61-9ebb-7882f60d7be7,.f402c38f-b62a-4270-a6bb-f7565a99ddf7{fill:none;stroke:#b8a6c9;}.e8f4496d-6637-4f61-9ebb-7882f60d7be7,.f402c38f-b62a-4270-a6bb-f7565a99ddf7{stroke-linejoin:round;}.e8f4496d-6637-4f61-9ebb-7882f60d7be7{stroke-width:2.4px;}.e20ff317-390f-494f-b63a-7f6077c50dfd,.f402c38f-b62a-4270-a6bb-f7565a99ddf7{stroke-linecap:round;stroke-width:2.5px;}.e20ff317-390f-494f-b63a-7f6077c50dfd{stroke-miterlimit:1;}</style></defs><title>icon1</title><g id="fe2b8d8a-5d52-41a2-98ec-18eacd2e9fc4" data-name="Layer 2"><g id="e94008ab-8d65-414c-bd5a-dfda7fe13e88" data-name="Calque 1"><polygon class="b5fcf62e-3186-4301-bfac-f8a3be35b0b2" points="48.04 79.13 32.7 79.13 38.82 54.35 50.49 56.8 48.04 79.13"/><polygon class="b5fcf62e-3186-4301-bfac-f8a3be35b0b2" points="104.4 79.13 81.71 79.13 70.68 54.35 84.8 50.67 104.4 79.13"/><polyline class="e8f4496d-6637-4f61-9ebb-7882f60d7be7" points="46.81 73.61 49.02 57.62 58.08 52.94 71.2 54.63 81.12 74.22"/><polyline class="e8f4496d-6637-4f61-9ebb-7882f60d7be7" points="51.08 43.77 38.82 54.35 33.4 78.51"/><line class="e8f4496d-6637-4f61-9ebb-7882f60d7be7" x1="57.29" y1="30.16" x2="46.33" y2="32.64"/><line class="e8f4496d-6637-4f61-9ebb-7882f60d7be7" x1="50.25" y1="45.04" x2="56" y2="30.9"/><polyline class="e8f4496d-6637-4f61-9ebb-7882f60d7be7" points="64.48 42.41 83.76 50.4 102.56 78.51"/><line class="e8f4496d-6637-4f61-9ebb-7882f60d7be7" x1="74.41" y1="23.55" x2="65.77" y2="42.86"/><polyline class="e8f4496d-6637-4f61-9ebb-7882f60d7be7" points="39.25 29.06 56.14 22.17 61.24 21.5 75.3 22.61 46.33 40.55"/><path class="f402c38f-b62a-4270-a6bb-f7565a99ddf7" d="M60.6,14.77C64,15.45,67.3,13,68,9.28S66.64,2,63.26,1.36s-6.7,1.79-7.44,5.49S57.22,14.1,60.6,14.77Z"/><line class="e20ff317-390f-494f-b63a-7f6077c50dfd" x1="22.86" y1="79.13" x2="123.25" y2="79.13"/><line class="e20ff317-390f-494f-b63a-7f6077c50dfd" x1="1.25" y1="20.97" x2="46.33" y2="40.55"/></g></g></svg>