<svg xmlns="http://www.w3.org/2000/svg" viewBox="0 0 93 80.43"><defs><style>.a9b24990-39d8-474f-b7ae-a1c3d4dc92b5{fill:#e5deec;}.a8600dcf-7d17-47dc-8a8f-82eb1b9d6486,.b67500d4-46e5-44aa-9ead-96c22364d72e,.bd637327-7664-46b3-a895-e5d3003e085c{fill:none;stroke:#b8a6c9;}.a8600dcf-7d17-47dc-8a8f-82eb1b9d6486{stroke-miterlimit:10;}.a8600dcf-7d17-47dc-8a8f-82eb1b9d6486,.b67500d4-46e5-44aa-9ead-96c22364d72e{stroke-width:2.4px;}.b67500d4-46e5-44aa-9ead-96c22364d72e,.bd637327-7664-46b3-a895-e5d3003e085c{stroke-linejoin:round;}.bd637327-7664-46b3-a895-e5d3003e085c{stroke-linecap:round;stroke-width:2.5px;}</style></defs><title>icon2</title><g id="f361aeb7-3690-4db6-baec-5c4c59c70497" data-name="Layer 2"><g id="fa350eac-0fea-42b7-888f-90e50e54c30b" data-name="Calque 1"><polygon class="a9b24990-39d8-474f-b7ae-a1c3d4dc92b5" points="36.33 79.22 30.52 79.22 33.56 57.01 42.14 57.48 36.33 79.22"/><polygon class="a9b24990-39d8-474f-b7ae-a1c3d4dc92b5" points="18.89 21.75 9.04 25.11 12.18 0.92 18.89 0.14 18.89 21.75"/><line class="a8600dcf-7d17-47dc-8a8f-82eb1b9d6486" x1="40.05" y1="79.23" x2="93" y2="79.23"/><line class="a8600dcf-7d17-47dc-8a8f-82eb1b9d6486" y1="79.23" x2="42.14" y2="79.23"/><polyline class="b67500d4-46e5-44aa-9ead-96c22364d72e" points="11.93 10.78 10.17 24.86 27.61 40.39 33.42 57.48 30.52 79.22"/><polyline class="b67500d4-46e5-44aa-9ead-96c22364d72e" points="33.42 29.52 18.89 21.75 18.89 0"/><line class="b67500d4-46e5-44aa-9ead-96c22364d72e" x1="49.41" y1="29.52" x2="42.14" y2="19.96"/><line class="b67500d4-46e5-44aa-9ead-96c22364d72e" x1="31.83" y1="29.27" x2="48.12" y2="28.59"/><polyline class="b67500d4-46e5-44aa-9ead-96c22364d72e" points="40.69 41.94 42.14 57.48 36.33 79.22"/><line class="b67500d4-46e5-44aa-9ead-96c22364d72e" x1="55.41" y1="38.26" x2="40.82" y2="43.39"/><line class="b67500d4-46e5-44aa-9ead-96c22364d72e" x1="60.17" y1="46.82" x2="53.77" y2="38.84"/><polyline class="b67500d4-46e5-44aa-9ead-96c22364d72e" points="36.33 3.11 56.67 24.86 59.58 29.52 65.39 41.94 85.73 41.94"/><path class="bd637327-7664-46b3-a895-e5d3003e085c" d="M65.84,25.91c.84,3.58,4.71,5.72,8.64,4.8s6.43-4.58,5.59-8.16-4.72-5.73-8.65-4.8S65,22.33,65.84,25.91Z"/></g></g></svg>