<svg xmlns="http://www.w3.org/2000/svg" viewBox="0 0 42.5 110.83"><defs><style>.ae5f35fd-babb-4002-aeb4-536821382822{fill:#e5deec;}.bcdf837d-7458-4da5-bb72-37f791f675b5{fill:none;stroke:#b8a6c9;stroke-linecap:round;stroke-linejoin:round;stroke-width:2.5px;}</style></defs><title>icon6</title><g id="ec60fa08-10c4-449f-ab70-0d9a0f9cee6b" data-name="Layer 2"><g id="ac8e8411-ff72-47a3-83bb-9be6f65a9884" data-name="Calque 1"><polygon class="ae5f35fd-babb-4002-aeb4-536821382822" points="40.39 93.87 4.92 93.87 8.93 84.01 38.26 84.55 40.39 93.87"/><path class="bcdf837d-7458-4da5-bb72-37f791f675b5" d="M12.42,20.08a6.46,6.46,0,1,0,6.46-6.46A6.46,6.46,0,0,0,12.42,20.08Z"/><path class="bcdf837d-7458-4da5-bb72-37f791f675b5" d="M30.73,31.24s-11.82,1.59-20.15,5.13L1.25,47.62,11.69,58.25"/><path class="bcdf837d-7458-4da5-bb72-37f791f675b5" d="M41.25,109.58,35.81,58.33l2.4-29.77S41.38,5.62,12.94,1.25"/><polyline class="bcdf837d-7458-4da5-bb72-37f791f675b5" points="6.18 92.96 4.92 92.96 31.98 92.96"/><line class="bcdf837d-7458-4da5-bb72-37f791f675b5" x1="16.54" y1="85.46" x2="37.35" y2="85.46"/><polyline class="bcdf837d-7458-4da5-bb72-37f791f675b5" points="15.04 42.58 18.96 58.55 5.1 92.45"/></g></g></svg>