<svg xmlns="http://www.w3.org/2000/svg" viewBox="0 0 124.5 83.44"><defs><style>.bfc9c355-dd38-44e8-9eac-4d1865ce97c8{fill:#e5deec;}.a6aa2968-e6f6-4002-b5cd-1b858e0d59b8,.a76cebb0-af04-4e09-b070-502421f020b2,.b1b146da-c7f0-44c2-b553-0f4a7b433a37,.b79651f7-8bc5-4a99-bc0e-8d68ebe8cd41{fill:none;stroke:#b8a6c9;}.b1b146da-c7f0-44c2-b553-0f4a7b433a37,.b79651f7-8bc5-4a99-bc0e-8d68ebe8cd41{stroke-linecap:round;}.a6aa2968-e6f6-4002-b5cd-1b858e0d59b8,.a76cebb0-af04-4e09-b070-502421f020b2,.b79651f7-8bc5-4a99-bc0e-8d68ebe8cd41{stroke-linejoin:round;}.a6aa2968-e6f6-4002-b5cd-1b858e0d59b8,.b1b146da-c7f0-44c2-b553-0f4a7b433a37,.b79651f7-8bc5-4a99-bc0e-8d68ebe8cd41{stroke-width:2.5px;}.a76cebb0-af04-4e09-b070-502421f020b2{stroke-width:2.4px;}.b1b146da-c7f0-44c2-b553-0f4a7b433a37{stroke-miterlimit:1;}</style></defs><title>icon3</title><g id="e258e6d4-1165-4bcc-8631-58249bdc24ee" data-name="Layer 2"><g id="b3b3b241-cad0-4fd5-b45d-1086c9d6c0af" data-name="Calque 1"><polygon class="bfc9c355-dd38-44e8-9eac-4d1865ce97c8" points="91.79 82.19 85.98 82.19 78.96 49.29 90.15 49.85 91.79 82.19"/><polygon class="bfc9c355-dd38-44e8-9eac-4d1865ce97c8" points="57.68 67.35 49.04 66.87 58.18 34.58 63.49 43.89 57.68 67.35"/><path class="b79651f7-8bc5-4a99-bc0e-8d68ebe8cd41" d="M85.25,9.3c.82,3.44,4.54,5.5,8.31,4.61s6.18-4.4,5.37-7.84S94.4.57,90.62,1.46,84.44,5.86,85.25,9.3Z"/><polyline class="a76cebb0-af04-4e09-b070-502421f020b2" points="97.69 38.41 92.98 30.47 89.43 45.53 91.86 82.39"/><polyline class="a76cebb0-af04-4e09-b070-502421f020b2" points="57.68 67.35 63.49 43.89 78.96 49.29 86.48 81.14"/><polyline class="a76cebb0-af04-4e09-b070-502421f020b2" points="82.41 27.79 79.34 38.86 58.85 34.64 49.04 66.87"/><polyline class="a76cebb0-af04-4e09-b070-502421f020b2" points="89.43 45.53 102.59 41.13 104.7 38.05 97.2 24.3 83.65 21.03 72.89 23.57 59.35 20.3"/><polyline class="a6aa2968-e6f6-4002-b5cd-1b858e0d59b8" points="16.83 82.19 18.56 67.48 66.96 67.48 68.69 82.19"/><line class="b1b146da-c7f0-44c2-b553-0f4a7b433a37" x1="1.25" y1="82.19" x2="123.25" y2="82.19"/></g></g></svg>