<svg xmlns="http://www.w3.org/2000/svg" viewBox="0 0 85.5 72.28"><defs><style>.f035c76e-1ba5-4ab0-a71d-31f403caa22b{fill:#e5deec;}.fe5ad032-90b6-47e8-9ff6-66c90c777c6c{fill:none;stroke:#b8a6c9;stroke-linecap:round;stroke-linejoin:round;stroke-width:2.5px;}</style></defs><title>icon5</title><g id="bb2c5604-6814-4202-b629-11e34640d22d" data-name="Layer 2"><g id="fcb12eb8-1f0f-4aa8-9266-e669adb82055" data-name="Calque 1"><path class="f035c76e-1ba5-4ab0-a71d-31f403caa22b" d="M84.25,55.86a15.17,15.17,0,0,1-30.34,0s6.79,7.92,15.17,7.92S84.25,55.86,84.25,55.86Z"/><path class="f035c76e-1ba5-4ab0-a71d-31f403caa22b" d="M31.68,55.86a15.17,15.17,0,1,1-30.34,0s6.79,7.92,15.17,7.92S31.68,55.86,31.68,55.86Z"/><path class="fe5ad032-90b6-47e8-9ff6-66c90c777c6c" d="M31.59,55.86A15.17,15.17,0,1,1,16.42,40.69,15.17,15.17,0,0,1,31.59,55.86Z"/><path class="fe5ad032-90b6-47e8-9ff6-66c90c777c6c" d="M84.25,55.86A15.17,15.17,0,1,1,69.08,40.69,15.17,15.17,0,0,1,84.25,55.86Z"/><path class="fe5ad032-90b6-47e8-9ff6-66c90c777c6c" d="M38.58,42.43c-7.1-5.87-10.44-6.91-10.44-6.91-10.71-3.57-2.68-11.9-2.68-11.9L38.82,12.29C43.08,9,45.61,9,47.54,8.78c3.68-.33,4.69,1.06,4.69,1.06A11.58,11.58,0,0,1,55.74,16c.61,2.56.64,9.47,2.85,11.54L72.7,31.71"/><path class="fe5ad032-90b6-47e8-9ff6-66c90c777c6c" d="M48.55,21.05,36.28,29.31l11.6,9.14s-.22,3-6.13,25.33"/><circle class="fe5ad032-90b6-47e8-9ff6-66c90c777c6c" cx="67.57" cy="8.05" r="6.81"/></g></g></svg>