<svg xmlns="http://www.w3.org/2000/svg" viewBox="0 0 79.5 79.53"><defs><style>.bc8804a7-6415-42b7-b6f6-eb5fee744f4a{fill:#e5deec;}.bdac1cef-3215-49ae-ad67-0015c63df0c3{fill:none;stroke:#b8a6c9;stroke-linecap:round;stroke-linejoin:round;stroke-width:2.5px;}</style></defs><title>icon4</title><g id="bf9de1e6-8ae0-4c52-85fa-d6b4723658f8" data-name="Layer 2"><g id="bbd73a12-4faf-482f-ba61-65e2b64e3a7b" data-name="Calque 1"><polygon class="bc8804a7-6415-42b7-b6f6-eb5fee744f4a" points="69.97 78.28 27.66 77.59 26.12 72.14 30.46 67.16 69.34 66.69 73.16 72.49 69.97 78.28"/><path class="bdac1cef-3215-49ae-ad67-0015c63df0c3" d="M33.77,9.46c.83,3.51,4.63,5.62,8.48,4.71s6.3-4.49,5.48-8S43.1.55,39.25,1.46,33,6,33.77,9.46Z"/><path class="bdac1cef-3215-49ae-ad67-0015c63df0c3" d="M47.14,66.69H34.08s-10.81,0-6.42,10.9"/><path class="bdac1cef-3215-49ae-ad67-0015c63df0c3" d="M78.25,63.31,58.62,51.62l1.14-20.7c.58-11-9.92-10.63-9.92-10.63H29.66S19.16,20,19.74,30.92l1.14,20.7L1.25,63.31"/><path class="bdac1cef-3215-49ae-ad67-0015c63df0c3" d="M51.73,31.32,50.92,56l16.48,9.4c3.8,2.32,5.35,3.9,5.35,7.08h0A5.8,5.8,0,0,1,67,78.28H12.53A5.8,5.8,0,0,1,6.75,72.5h0c0-3.18,1.55-4.76,5.35-7.08L28.58,56l-.81-24.7"/></g></g></svg>