<svg xmlns="http://www.w3.org/2000/svg" xmlns:xlink="http://www.w3.org/1999/xlink" viewBox="0 0 839.25 529.02"><defs><style>.a679af2c-0dd8-4244-be54-67fc170b4d81{isolation:isolate;}.f0b815bf-3dfd-4d68-9c83-a07a7c8d784d{fill:#f9f5fd;}.e7fc1c6c-8818-4d36-8da3-6f2c34cf0614{fill:#f5ecfd;}.a5fee96f-ac22-4aeb-912f-9cb75031ee5b,.bce0c87d-10d3-42d5-b3bc-33d569c32c43,.ed2aa923-5615-463f-bd2a-ae8409095e14,.fadd3bfc-00d2-458b-85d6-fd877ddb0651{fill:none;}.bce0c87d-10d3-42d5-b3bc-33d569c32c43{stroke:#60c9bd;}.bce0c87d-10d3-42d5-b3bc-33d569c32c43,.ed2aa923-5615-463f-bd2a-ae8409095e14,.fadd3bfc-00d2-458b-85d6-fd877ddb0651{stroke-miterlimit:10;}.b6a797e2-f13f-4b91-ac17-c9b0db3f6bd5,.bce0c87d-10d3-42d5-b3bc-33d569c32c43,.ed2aa923-5615-463f-bd2a-ae8409095e14,.fadd3bfc-00d2-458b-85d6-fd877ddb0651{stroke-width:2px;fill-rule:evenodd;}.ad7443a6-2030-4a93-aaa3-a2ae34b14a8a{fill:#60c9bd;}.ede5f247-5d7c-43c6-92dd-03cc48e7b277{fill:#efc2e1;}.be5640c1-dc42-4285-aa71-59ea52653977{fill:#d59cc3;}.e34441b7-ebec-4c90-bb61-70ddc1d007c0{fill:url(#fbcee9d4-3396-4a5a-8654-32571a3f22b5);}.b40bded7-974a-4f12-983e-53e11f95c5e3{fill:url(#b06a7d03-cc0c-44d8-bf2b-2df4cdffd980);}.a50bdc1f-744d-4907-8001-1b78e62a3477{fill:url(#f5895e1f-1c00-4739-a4ce-e09e11b3ae85);}.a5f30dca-2030-4080-9281-b53e5718e164{fill:url(#b1e4b772-5938-4dfb-9fdd-9a7a7727841e);}.a1d85b6c-1a70-4c0c-a1da-bf154dd561b5{fill:url(#bb9ff10f-5728-411d-9ae4-f8fdde88b588);}.b6a797e2-f13f-4b91-ac17-c9b0db3f6bd5,.b8b93f3e-4004-44c4-bfc0-a1a8ab4e23df{fill:#f8b5a9;}.fdb9db29-73f6-4c1e-b7c7-e5a63710d54c{fill:#e79f92;}.aa9a153a-c1d5-4a2d-8cef-e291632bf207{fill:#de9486;}.e049cb32-57a4-492e-90e5-c82aae6ea5ed{fill:url(#a807f068-a8fb-468f-866e-4cbb64912451);}.b1ec1010-fa8b-4f99-9b06-d6bcc3285e6d{opacity:0.67;}.aeca2b89-2a96-4ad9-9816-c5176fa79cf8{fill:url(#e7150210-ade2-4835-93e3-08b9d65c5839);}.eb887c01-dac4-4f95-8828-24c9e71fa198{fill:url(#b59ac8cc-b5bc-4dc9-97e7-beb86eba2dec);}.a2db4eac-0985-43c6-8f0a-192f0457a39f{fill:url(#a73ad844-3a02-471a-9a91-922ae7ef3cf8);}.a8912f29-18b9-4df4-bee5-fcda12faae08{fill:url(#b1f0d36f-9917-4195-875e-438c9dd99e4d);}.b3d7d5b2-a9ca-4f57-b495-c999b8820c10{fill:#5a4785;}.fadd3bfc-00d2-458b-85d6-fd877ddb0651{stroke:#6d599a;}.bd0794b0-c698-4f6a-a991-2624272ee2c2{fill:#6d599a;}.b8ba039f-e678-4902-8272-8324d4071686{fill:#eee4f8;}.b164a65e-8711-4548-8a62-d9d97b12a4c9{fill:#cbc7e3;}.b5d6cad2-f726-48dc-b57b-3a48affe56f0{fill:#e4e1f2;}.a25fcacb-ff40-4020-8a3b-2e07383984b5{fill:#eceaf6;}.b7f1bca0-571c-4264-906d-4245040551ee{fill:#fbfafc;}.b6a797e2-f13f-4b91-ac17-c9b0db3f6bd5{stroke:#eaa196;}.b6fb8220-6150-4674-9f30-6cf3739c438e{opacity:0.46;}.a296262c-1718-404e-8dba-23b508323dfd{fill:url(#e3671c55-b5dd-4a0e-8764-4a650ee8f818);}.a9be267b-5b04-4851-b67d-b6e5ab97bccd{fill:url(#a5e6521a-2be1-47da-b31d-a6e5a14f69c4);}.a5fee96f-ac22-4aeb-912f-9cb75031ee5b{stroke:url(#ef1aee6c-ca66-4f84-b606-f285346ac6eb);}.ed2aa923-5615-463f-bd2a-ae8409095e14{stroke:#efc2e1;}.b8fc7732-de31-4c39-96ea-bd8aba416638{fill:#d69ec5;}.af3bf15f-3f16-43f3-a6c3-c569daddc2c7{fill:url(#bd66b77f-55cd-47bf-a88b-5becb87cbc7e);}.a287c6dd-72c7-47f3-8d62-25255e7cb373{fill:#837395;}</style><linearGradient id="fbcee9d4-3396-4a5a-8654-32571a3f22b5" x1="289.01" y1="529.02" x2="289.01" y2="387.49" gradientUnits="userSpaceOnUse"><stop offset="0" stop-color="#f1b7df"/><stop offset="1" stop-color="#efc2e1"/></linearGradient><linearGradient id="b06a7d03-cc0c-44d8-bf2b-2df4cdffd980" x1="412.85" y1="527.01" x2="412.85" y2="488.38" xlink:href="#fbcee9d4-3396-4a5a-8654-32571a3f22b5"/><linearGradient id="f5895e1f-1c00-4739-a4ce-e09e11b3ae85" x1="534.8" y1="527.01" x2="534.8" y2="386.72" xlink:href="#fbcee9d4-3396-4a5a-8654-32571a3f22b5"/><linearGradient id="b1e4b772-5938-4dfb-9fdd-9a7a7727841e" x1="410.96" y1="416.47" x2="410.96" y2="296.46" gradientUnits="userSpaceOnUse"><stop offset="0" stop-color="#efc2e1"/><stop offset="1" stop-color="#d59cc3"/></linearGradient><linearGradient id="bb9ff10f-5728-411d-9ae4-f8fdde88b588" x1="467.16" y1="527.03" x2="467.16" y2="392.12" gradientUnits="userSpaceOnUse"><stop offset="0" stop-color="#d59cc3"/><stop offset="1" stop-color="#efc2e1"/></linearGradient><linearGradient id="a807f068-a8fb-468f-866e-4cbb64912451" x1="497.59" y1="377.13" x2="497.59" y2="339.71" gradientUnits="userSpaceOnUse"><stop offset="0" stop-color="#e8a092"/><stop offset="1" stop-color="#e8a092" stop-opacity="0"/></linearGradient><linearGradient id="e7150210-ade2-4835-93e3-08b9d65c5839" x1="615.71" y1="281.63" x2="615.71" y2="177.35" gradientUnits="userSpaceOnUse"><stop offset="0" stop-color="#e8a092" stop-opacity="0"/><stop offset="1" stop-color="#e8a092"/></linearGradient><linearGradient id="b59ac8cc-b5bc-4dc9-97e7-beb86eba2dec" x1="511.3" y1="334.9" x2="551.69" y2="334.9" xlink:href="#a807f068-a8fb-468f-866e-4cbb64912451"/><linearGradient id="a73ad844-3a02-471a-9a91-922ae7ef3cf8" x1="357.68" y1="263.48" x2="504.44" y2="263.48" xlink:href="#a807f068-a8fb-468f-866e-4cbb64912451"/><linearGradient id="b1f0d36f-9917-4195-875e-438c9dd99e4d" x1="582.58" y1="400.07" x2="582.58" y2="374.4" xlink:href="#a807f068-a8fb-468f-866e-4cbb64912451"/><linearGradient id="e3671c55-b5dd-4a0e-8764-4a650ee8f818" x1="811.12" y1="423.02" x2="697.61" y2="357.49" xlink:href="#e7150210-ade2-4835-93e3-08b9d65c5839"/><linearGradient id="a5e6521a-2be1-47da-b31d-a6e5a14f69c4" x1="438.73" y1="212.04" x2="438.73" y2="173.22" xlink:href="#a807f068-a8fb-468f-866e-4cbb64912451"/><linearGradient id="ef1aee6c-ca66-4f84-b606-f285346ac6eb" x1="438.73" y1="212.04" x2="438.73" y2="173.22" xlink:href="#e7150210-ade2-4835-93e3-08b9d65c5839"/><linearGradient id="bd66b77f-55cd-47bf-a88b-5becb87cbc7e" x1="786.42" y1="353.82" x2="786.42" y2="284.99" gradientUnits="userSpaceOnUse"><stop offset="0" stop-color="#40d1b1"/><stop offset="1" stop-color="#4ebbaf"/></linearGradient></defs><title>illustration3</title><g id="f740f7f5-f5ca-4700-8832-a974609ddf9b" data-name="Layer 2"><g id="a5591771-3e1c-4a23-8146-af2285086b43" data-name="Rounded Rectangle 23 copy 5" class="a679af2c-0dd8-4244-be54-67fc170b4d81"><g id="e37906bd-2eec-4d29-a0a5-5b51dbe0cf0b" data-name="Ellipse 12 copy 2"><ellipse class="f0b815bf-3dfd-4d68-9c83-a07a7c8d784d" cx="481.11" cy="250.1" rx="250.08" ry="250.1"/></g><g id="bcafad98-9e62-4253-a34f-168ea9ac5787" data-name="Ellipse 12 copy 2"><path class="e7fc1c6c-8818-4d36-8da3-6f2c34cf0614" d="M687.13,105.14c-.58-.86-412.43,279.72-413.36,281.6,77.76,114.15,233.34,143.64,347.48,65.88S764.89,219.28,687.13,105.14Z"/></g><path class="bce0c87d-10d3-42d5-b3bc-33d569c32c43" d="M429.25,170.74l1.18-.3S459.07,225.3,475,287.71c15.81,62,18.89,131.61,18.89,131.61"/><g id="f0c1fae2-49fa-4b37-9c30-3bc6a7f5549b" data-name="Shape 5"><path class="ad7443a6-2030-4a93-aaa3-a2ae34b14a8a" d="M536,285.27c-14.64-19.52-49.31,69.21-49.31,69.21l1,.67S550.62,304.79,536,285.27Z"/></g><g id="ebd13576-1c67-447f-b520-dd6233e35848" data-name="Shape 6"><path class="ad7443a6-2030-4a93-aaa3-a2ae34b14a8a" d="M429.84,337.73c-5.51,26.47,47.08,37.58,57.23,39.47C479.91,367.79,435.45,310.82,429.84,337.73Zm57.23,39.47,1,1.29.7-1S488.15,377.4,487.07,377.2Z"/></g><g id="a929c356-d969-492f-8a5d-0d405106a1fb" data-name="Shape 7"><path class="ad7443a6-2030-4a93-aaa3-a2ae34b14a8a" d="M506,173.33c-19.52-20.74-43.76,73.82-43.76,73.82l1.06.6S525.53,194.07,506,173.33Z"/></g><g id="a8007938-9554-44ea-96b8-93726ef25d34" data-name="Shape 8"><path class="ad7443a6-2030-4a93-aaa3-a2ae34b14a8a" d="M374.8,226.08c7.81,34.59,75,22.27,86.45,19.91C449.54,239,366.86,190.93,374.8,226.08ZM461.25,246l1.39.83.28-1.18Z"/></g><g id="a7d6fb45-bfd3-46fc-9ee9-d1281d069dfb" data-name="Shape 9"><path class="ad7443a6-2030-4a93-aaa3-a2ae34b14a8a" d="M391.49,108.67a39,39,0,0,1,3.3-2.22C401.63,101.53,420,88.29,391.49,108.67Zm39,64.62c0,1.59,0,2.48,0,2.48l1.06-.61Zm-35.71-66.84-2.24,1.61,37.95,65.23C430.18,158.86,427,87.06,394.79,106.45Z"/></g><g id="b5ea0248-7749-4c7f-aa25-500fb827eb93" data-name="Forme 5 copie"><path class="ede5f247-5d7c-43c6-92dd-03cc48e7b277" d="M446,321c-9.45-25.7-22.29-28-24.73-28.82-7.61-2.49-21.47-.29-29.36,0-8.31.3-10.82,10.17-10.82,10.17a87.73,87.73,0,0,0-13.91,27.13c-9.63,31.39-18.62,78.84-18.62,78.84L364,410s1.9-20.67,6.26-43.23c2.87-14.84,11.09-30.6,13.91-42.39a39.86,39.86,0,0,0,.84-14.75c-.08-.58,1.75-6.39,5.34-7.29,8.95-2.23,26.26,0,33.56-1.14,1.26-.2,14.89,39.37,22.08,72.35,2.92,13.38-1.41,25.95,1.55,33.91,2.53,6.83,18.54,1.7,18.54,1.7S457.67,352.78,446,321Z"/></g><g id="a60578f2-7fa5-4e7f-b008-61d9f35a2f63" data-name="Forme 1"><path class="ede5f247-5d7c-43c6-92dd-03cc48e7b277" d="M533.71,527.5c-7-.09-78.68-1-142.8-1.48-10.76-.07-22.12-.11-33.75-.11-34.61,0-62,.34-66.3.39a630,630,0,0,0,4.73-72.68c0-31.13-1-59.84-1.14-64L523.36,388Z"/><path class="be5640c1-dc42-4285-aa71-59ea52653977" d="M522.89,388.5,533.17,527c-9.54-.12-79.53-1-142.25-1.47-10.78-.07-22.14-.11-33.77-.11-33.31,0-60,.31-65.72.38a631,631,0,0,0,4.66-72.17c0-30.07-.92-57.88-1.12-63.51l227.92-1.61m.93-1-229.89,1.63s1.16,30.61,1.16,64.5a623.25,623.25,0,0,1-4.8,73.19s28.92-.4,66.86-.4c10.69,0,22.08,0,33.76.11C458.82,527,534.25,528,534.25,528L523.82,387.49Z"/></g><g id="f182c46d-b028-48a2-8cef-ed7c261dcaf1" data-name="Forme 2"><path class="e34441b7-ebec-4c90-bb61-70ddc1d007c0" d="M281.68,525.37c.85-1.49,3-6,3.09-14.1.07-4.68-1.27-11.23-2.69-18.18-1.6-7.79-3.4-16.62-3.49-24.22-.39-34.3,4.19-69.51,4.6-72.61l11.49-7.88c.73,7.3,5.88,60.55,4.55,99.13A118.56,118.56,0,0,1,290,528.39Z"/><path class="be5640c1-dc42-4285-aa71-59ea52653977" d="M294.26,389.27c1,9.85,5.75,60.91,4.47,98.22a118.4,118.4,0,0,1-9.05,40.27l-7.29-2.66c1-1.94,2.78-6.46,2.88-13.82.07-4.73-1.28-11.32-2.7-18.29-1.59-7.77-3.39-16.57-3.48-24.12-.38-33.59,4-68.07,4.57-72.33l10.6-7.27m.83-1.78L282.73,396s-5.05,36.72-4.64,72.91c.17,14.38,6.32,32.51,6.18,42.38s-3.33,14.37-3.33,14.37l9.27,3.39a117.28,117.28,0,0,0,9.52-41.49c1.44-41.8-4.64-100-4.64-100Z"/></g><g id="e3aa9dd5-4bcf-4af3-9efc-08b6f33446d8" data-name="Forme 3"><path class="b40bded7-974a-4f12-983e-53e11f95c5e3" d="M291.19,526a85.69,85.69,0,0,0,4.89-18.27,66,66,0,0,0-.4-17.19l235.41-1.69,3.61,37.63Z"/><path class="be5640c1-dc42-4285-aa71-59ea52653977" d="M530.64,489.38,534.15,526l-242.23-.48a83.07,83.07,0,0,0,4.65-17.71,64.49,64.49,0,0,0-.31-16.76l234.38-1.68m.9-1-236.45,1.69a64.91,64.91,0,0,1,.49,17.63,84.78,84.78,0,0,1-5.13,18.82l244.8.49-3.71-38.63Z"/></g><g id="aa3212c1-444b-4663-8c82-568824ba28fc" data-name="Forme 4"><path class="a50bdc1f-744d-4907-8001-1b78e62a3477" d="M524.68,387.54l12.92,6.3c.62,3.5,7.44,43,7.36,80.12-.06,24.57-7.21,48.7-8.1,51.61l-5.14.85Z"/><path class="be5640c1-dc42-4285-aa71-59ea52653977" d="M525.22,388.36l11.93,5.82c.84,4.8,7.39,43.43,7.31,79.78-.06,23.81-6.79,47.21-8,51.16l-4.29.72-7-137.48m-1.08-1.64L531.25,527l6-1s8.15-25.6,8.21-52.05c.09-39.18-7.42-80.46-7.42-80.46l-13.9-6.78Z"/></g><g id="b98b2e6b-06a7-496a-aa75-5f513c8620ac" data-name="Forme 5"><path class="a5f30dca-2030-4080-9281-b53e5718e164" d="M449.64,326.45c-9.45-25.7-22.29-28-24.73-28.82-7.61-2.49-21.47-.29-29.36,0-8.31.3-10.82,10.17-10.82,10.17a87.88,87.88,0,0,0-13.91,27.13c-9.64,31.39-18.62,78.84-18.62,78.84l15.45,1.69s1.9-20.66,6.26-43.23c2.87-14.84,11.09-30.6,13.91-42.39a39.81,39.81,0,0,0,.84-14.74c-.08-.59,1.75-6.4,5.34-7.3,8.94-2.23,26.26,0,33.56-1.14,1.25-.2,14.89,39.37,22.08,72.35,2.91,13.38-1.41,26,1.54,33.92,2.54,6.82,18.55,1.69,18.55,1.69S461.32,358.25,449.64,326.45Z"/></g><g id="a90e9deb-4684-423b-8955-691343597677" data-name="Forme 7"><path class="ede5f247-5d7c-43c6-92dd-03cc48e7b277" d="M542.19,413.23c0-.15,0-.42.09-.77l.36.37,7.5,16.46-.51.27ZM541.4,410c-2.74-3.14-3.24-4.61-3.07-5,.08-.17.46-.19.62-.19a1.71,1.71,0,0,1,1.31.55C541,406.17,541.39,407.79,541.4,410Z"/><path class="be5640c1-dc42-4285-aa71-59ea52653977" d="M539,405.34a1.18,1.18,0,0,1,.94.39,5,5,0,0,1,.94,2.84,9.93,9.93,0,0,1-2-3.23H539m0-1c-3.09,0,.81,4.65,2.92,7,.14-2.64-.07-7-2.92-7Zm2.92,7c-.07,1.17-.19,2-.19,2l7.72,17,1.39-.76-7.73-16.95s-.5-.5-1.19-1.26Z"/></g><g id="b2f715e7-f370-42c3-84d4-58c55d54395b" data-name="Forme 6"><path class="a1d85b6c-1a70-4c0c-a1da-bf154dd561b5" d="M560.91,440.05c-1.26-7.45.43-10.66-1.54-13.56-1.2-1.76-16.35,6.28-17,6.78s6.84,19,10.82,37.3c3.56,16.43,3.6,32.94,2.9,33.49A76.89,76.89,0,0,1,539.25,514a52.75,52.75,0,0,1-34,.34c-11.85-3.91-23.92-14-37.1-21.74-7.36-4.34-13.36-11.39-20.09-16.95-8.77-7.25-11.13-18.85-18.54-27.13-29.33-32.73-53.05-56.41-53.05-56.41l-10.82,1.51S405,461.12,452.73,499.4C489.61,529,539.25,527,539.25,527s9-1.76,17-10.66c7.35-8.18,12.19-18.88,12.36-20.34C568.73,495.18,564.45,460.91,560.91,440.05Z"/></g><g id="ecf3b53d-160c-4c78-967b-5d97a8ce638f" data-name="Shape 179"><path class="b8b93f3e-4004-44c4-bfc0-a1a8ab4e23df" d="M797.49,422.68c-2.7-1.43-30.69-15.92-59.26-17.39-1.17-.06-2.37-.09-3.58-.09-11.1,0-22.28,2.48-34.11,5.1-12.46,2.76-25.34,5.61-38.78,5.61-23.37,0-43.54-8.85-63.47-27.85-1.7-1.62-2.61-2.19-3.5-2.19-1.28,0-1.83,1.14-2.47,2.46-2,4.17-7.34,15.23-46.32,15.23-5.12,0-10.71-.19-16.61-.57a7.77,7.77,0,0,1-7.3-5.61c-4.36-12.29,6.89-39.95,21.89-53.82a16,16,0,0,0,5.2-11.76l-.29-5.53-1.66,5.28c-.05.17-5.32,16.51-17,16.51a15.21,15.21,0,0,1-5.41-1.07c-.56-.22-2.36-1.35-7.08-7.3a48.72,48.72,0,0,0-5.46-7.31l-2-2.06-3.14-4,1.16,1.88-5.19-5.45,7.59,10.86s2.52,3.59,5.37,7.2c6,9.78,10.26,23.85-3.53,35.5a14.14,14.14,0,0,1-9.42,3.29c-17.27,0-41.81-24.58-45.19-37.79-2.39-9.36-1.28-17.52,3.3-24.25,5.15-7.56,17.49-17.36,47.06-21.09,1.81-.23,2.42-.3,2.38-1.26,0-.63-.46-1-1.3-1-5.59-.25-15.48-3.85-25.05-7.32-10.18-3.7-19.79-7.19-25.18-7.19h-.63c-13.25.75-28.26,5.46-42.77,10s-28.25,8.87-39,8.87c-9.71,0-15.67-3.5-18.73-11-3-7.29-2.66-14.07,1-20.15,13.42-22.59,67.52-30.9,90.16-33.42a72,72,0,0,1,7.87-.42,99.74,99.74,0,0,1,25.12,3.52c8,3.69,16.37,7.16,24.48,10.52,8.38,3.47,16.31,6.76,21.85,9.53,2.47,1.47,4.41,2.69,5.57,3.41,1.52,1,1.54,1,1.86,1h.72l.24-.66a1.14,1.14,0,0,0-.5-1.29,38.9,38.9,0,0,0-7-4.2c-11-6.49-28-15.28-46.55-20.16-18.76-8.7-28.73-15.85-30.48-21.84l-.54-1.86-1.08,1.36c-2,.84-24,8-44.37,8-12.66,0-21.78-2.78-27.1-8.24-3.87-4-5.75-9.46-5.6-16.32,6-15.69,20.3-23.64,42.61-23.64,38.14,0,86.74,23.48,87.23,23.72l1.36.67.07-1.52c0-.81,1.12-19.72,19.42-19.72a33.51,33.51,0,0,1,6.58.71c16,3.26,36.42,13.84,62.21,27.24,6.65,3.45,13.53,7,20.86,10.75,11.69,5.93,24.28,11.46,36.45,16.81,8.9,3.91,18.1,8,27.07,12.19,34.32,16.24,65.9,38.39,92.27,57.9,5.72,4.23,11.72,6.38,17.86,6.38a28.82,28.82,0,0,0,16.13-5.15l-.73,120.19Z"/><path class="fdb9db29-73f6-4c1e-b7c7-e5a63710d54c" d="M416.28,173.72c37.9,0,86.3,23.38,86.79,23.62l2.73,1.32.14-3c0-.76,1.1-18.76,18.42-18.76a32.24,32.24,0,0,1,6.38.69c15.9,3.24,36.22,13.79,62,27.14,6.65,3.46,13.54,7,20.87,10.76,11.71,5.95,24.31,11.48,36.5,16.83,8.89,3.91,18.09,8,27,12.19,34.25,16.2,65.78,38.31,92.11,57.8,5.89,4.36,12.1,6.57,18.45,6.57a29.65,29.65,0,0,0,15.12-4.31l-.71,117.31-4.31-.16c-3.82-2-30.94-15.93-59.48-17.4-1.18-.06-2.41-.09-3.63-.09-11.2,0-22.44,2.49-34.33,5.12-12.41,2.75-25.23,5.59-38.56,5.59-23.09,0-43-8.76-62.78-27.58-1.64-1.56-2.85-2.46-4.19-2.46-1.91,0-2.68,1.61-3.37,3-1.93,4-7.06,14.66-45.42,14.66-5.09,0-10.66-.19-16.55-.57a6.76,6.76,0,0,1-6.42-4.94c-1.94-5.47-.6-14.94,3.57-25.36,4.34-10.81,10.92-20.79,18.06-27.39a17,17,0,0,0,5.52-12.55l-.59-11.1-3.32,10.6c0,.16-5.07,15.81-16,15.81a14.1,14.1,0,0,1-5-1c-.27-.1-1.84-.91-6.62-6.93a49.57,49.57,0,0,0-5.56-7.43l-18.27-19.2,15.18,21.73c.1.14,2.51,3.58,5.37,7.2,5.79,9.43,9.87,23-3.35,34.16a13.22,13.22,0,0,1-8.78,3.05c-16.89,0-40.91-24.09-44.22-37-2.32-9.07-1.26-16.95,3.16-23.44,5-7.39,17.16-17,46.35-20.66,1.72-.21,3.34-.42,3.26-2.29,0-.44-.23-1.87-2.26-2-5.43-.25-15.25-3.82-24.75-7.27-10.26-3.73-20-7.25-25.52-7.25-.23,0-.46,0-.68,0-13.38.75-28.45,5.48-43,10.05s-28.11,8.82-38.72,8.82c-9.25,0-14.91-3.3-17.8-10.38s-2.61-13.39.89-19.27c5.3-8.93,17.86-16.55,37.32-22.65,18.34-5.75,38.45-8.76,52.09-10.28a70,70,0,0,1,7.76-.42,98.76,98.76,0,0,1,24.78,3.46c8,3.69,16.35,7.16,24.44,10.51,8.34,3.45,16.21,6.71,21.72,9.47,2.5,1.47,4.41,2.67,5.55,3.39,1.64,1,1.78,1.11,2.4,1.11h1.41l.48-1.32a2,2,0,0,0-.81-2.4,39.47,39.47,0,0,0-7.11-4.3c-11.06-6.53-28.1-15.33-46.72-20.24-7-3.23-27.41-12.75-29.86-21.17l-1.09-3.71-2.11,2.66c-2.9,1.11-24.32,7.85-43.75,7.85-12.38,0-21.26-2.67-26.39-7.94-3.64-3.74-5.43-8.93-5.32-15.43,5.85-15.15,19.85-22.83,41.62-22.83h0m0-2c-19.64,0-36.71,6.09-43.61,24.44-.54,20.2,15.78,25.76,33.7,25.76,21.21,0,44.66-7.78,45-8.24,2.19,7.52,15.54,15.29,31.1,22.5,19.59,5.14,37.14,14.61,46.44,20.11a38.2,38.2,0,0,1,6.8,4.08c.15.12.22.18.19.18s-2.66-1.7-7-4.26c-10.78-5.4-29.86-12.43-46.44-20.11A101.24,101.24,0,0,0,457,232.61a73.16,73.16,0,0,0-8,.43c-40.12,4.47-106.73,18.71-91.94,54.94,3.5,8.57,10.53,11.63,19.66,11.63,21.79,0,55.53-17.4,81.85-18.88h.57c10.36,0,38.63,14,50.18,14.51,5.87.27-63.77,2.23-52.36,46.86,3.49,13.64,28.17,38.54,46.16,38.54a15.15,15.15,0,0,0,10.07-3.52c14.89-12.59,9.16-28,3.7-36.84-2.88-3.64-5.37-7.2-5.37-7.2a48.12,48.12,0,0,1,5.37,7.2c2.75,3.46,5.86,7,7.55,7.65a16.12,16.12,0,0,0,5.76,1.14c12.54,0,17.92-17.21,17.92-17.21a15,15,0,0,1-4.88,11c-20,18.52-32.72,60-14,61.16,6.14.39,11.69.57,16.68.57,49.71,0,45.56-17.69,48.79-17.69.58,0,1.4.57,2.81,1.91,23,21.91,44.22,28.13,64.16,28.13,26.18,0,50.12-10.71,72.89-10.71,1.18,0,2.35,0,3.52.09,30,1.55,59.05,17.38,59.05,17.38l6.84.26.74-123.26a27.88,27.88,0,0,1-17.14,6.18c-5.1,0-11-1.55-17.26-6.18-23.13-17.12-56.28-40.89-92.44-58-21.36-10.11-43.37-18.78-63.49-29-36.17-18.37-63-34-83.34-38.08a34.26,34.26,0,0,0-6.77-.73c-19.5,0-20.41,20.67-20.41,20.67s-48.85-23.82-87.67-23.82Z"/></g><g id="b70b5e16-84e3-4709-a76a-47ac4f362219" data-name="Shape 184"><polygon class="b8b93f3e-4004-44c4-bfc0-a1a8ab4e23df" points="456.94 250.17 457.63 250.14 457.63 273.51 456.94 250.17"/><polygon class="fdb9db29-73f6-4c1e-b7c7-e5a63710d54c" points="458.63 249.1 455.92 249.21 456.82 279.92 458.63 280.73 458.63 249.1 458.63 249.1"/></g><g id="e016d03e-60d0-42ee-9a9a-66692ecbb0cb" data-name="Shape 185"><path class="b8b93f3e-4004-44c4-bfc0-a1a8ab4e23df" d="M556.2,370.11c4.58-.05,10.22-.09,15.53-.09,6.84,0,11.78.07,14.71.22,3.92,0,6.6,7.05,7.78,11.57Z"/><path class="fdb9db29-73f6-4c1e-b7c7-e5a63710d54c" d="M571.73,371.52c6.81,0,11.73.07,14.63.21h.15c2,0,4.1,3.76,5.48,7.82l-26.08-8h5.82m0-3c-11.82,0-25.09.22-25.09.22L596.25,384s-2.74-15.27-9.74-15.27c-3.33-.17-8.87-.22-14.78-.22Z"/></g><g id="a9bf23ec-89df-422e-ad63-9501c86d76cb" data-name="Shape 188"><path class="b8b93f3e-4004-44c4-bfc0-a1a8ab4e23df" d="M593.32,373.11c-3-4-10.49-5.24-10.49-5.24l-1,.72s8.36,2,11.44,6.17c3.59,4.91,2,12.13,2,12.13l1-.72S597,378.12,593.32,373.11Z"/><path class="fdb9db29-73f6-4c1e-b7c7-e5a63710d54c" d="M582.83,367.87l-1,.72s8.36,2,11.44,6.17c3.59,4.91,2,12.13,2,12.13l1-.72s.75-8.05-2.93-13.06c-3-4-10.49-5.24-10.49-5.24Z"/></g><g id="bbc1abe0-4db9-44c1-bc29-c7a70fd0e849" data-name="Shape 186"><path class="b8b93f3e-4004-44c4-bfc0-a1a8ab4e23df" d="M575.49,255.92c-14.34-6.34-37.09-17.32-52.81-29.36a47.46,47.46,0,0,1-11.12-12.26,58.33,58.33,0,0,0,12,12.21C538.71,238.14,561.14,249.31,575.49,255.92Z"/><path class="fdb9db29-73f6-4c1e-b7c7-e5a63710d54c" d="M504.5,195.82l-1.11,1.44s3.21,18.25,18.68,30.09c24.83,19,66.52,35.16,66.52,35.16l1.1-1.44s-41.59-17-65.55-35.35c-17.66-13.53-19.64-29.9-19.64-29.9Z"/></g><g id="faa493fb-8f97-4e03-a555-408200f040b9" data-name="Shape 187"><path class="b8b93f3e-4004-44c4-bfc0-a1a8ab4e23df" d="M673.7,339.4c-15.24-2.53-32-7.22-45.42-15.85-12.58-8.09-21.42-21.09-27.35-33.06,6.76,11.34,16.25,23.54,28.82,31.62C643.26,330.8,659.2,336.13,673.7,339.4Z"/><path class="fdb9db29-73f6-4c1e-b7c7-e5a63710d54c" d="M589.63,261l-1,1.53s9.32,43.88,38.55,62.68c26.78,17.21,66.43,19,81.86,19,4.08,0,6.47-.13,6.47-.13l1-1.52s-51.32-.09-85.68-22.18c-28.54-18.34-41.2-59.39-41.2-59.39Z"/></g><g id="ec55431f-1a25-4fc9-953f-f736c56ad6c3" data-name="Shape 183"><polygon class="aa9a153a-c1d5-4a2d-8cef-e291632bf207" points="454.74 183.11 449.3 215.74 452.9 216.03 458.34 183.41 454.74 183.11"/></g><g id="eac9237d-5946-4ea9-8ebb-f91113905644" data-name="Shape 198"><path class="e049cb32-57a4-492e-90e5-c82aae6ea5ed" d="M504.66,340.3l-.81-.59-21,29s17.41,17.3,26.41,2.3S504.66,340.3,504.66,340.3Z"/></g><g id="eab2dd8f-c3b6-49b3-a737-1d6d1d1f52be" data-name="Shape 190" class="b1ec1010-fa8b-4f99-9b06-d6bcc3285e6d"><path class="aeca2b89-2a96-4ad9-9816-c5176fa79cf8" d="M718,267,586,201.09s-75.28-40.93-77.11-15.31c0,.43,11,15.06,27.36,22.22,18.68,8.16,44.53,9.64,71.28,22.56,24,11.57,48.37,29.64,68.12,39.37,22.46,11.08,38.91,13,41.86,11C728.49,273.63,718,267,718,267Z"/></g><g id="aeae8234-9f94-48a4-ac2a-8494583781d3" data-name="Shape 191"><path class="eb887c01-dac4-4f95-8828-24c9e71fa198" d="M550.79,321.72s-10.44,6.06-20.54,11.29c-7,3.63-18.95-.7-18.95-.7l.56,1.08S524.14,354.2,536,346.27c8.58-5.74,15.71-22.58,15.71-22.58Z"/></g><g id="f402ff0e-00e6-4b5c-a0ea-ead754e42ace" data-name="Shape 194"><path class="a2db4eac-0985-43c6-8f0a-192f0457a39f" d="M504.09,245.64l-1.72.52c1.34.41,2.07.65,2.07.65ZM358,290.73s.25-.53.73-1.49l-1.08.33Zm52.29-50.6c-29.87,9-47.83,41.72-51.56,49.11l143.61-43.08C492,243,444.92,229.75,410.32,240.13Z"/></g><g id="f37a8543-19a4-42ac-a09f-8324d394b9a0" data-name="Shape 192"><path class="b8b93f3e-4004-44c4-bfc0-a1a8ab4e23df" d="M590.25,373l-6-2s-24.82.58-42,.72c-11.46.09,3.84-26,1-25.72-5.39.53-17,26-17,26s-5.07,9.48-5,18c0,5.81,5.24,11.71,5.24,11.71s42.27,5.63,59.51-3C601.62,390.92,590.25,373,590.25,373Z"/></g><g id="ab9824df-dc0c-486c-be63-e9ba1c83bf49" data-name="Shape 199"><path class="a8912f29-18b9-4df4-bee5-fcda12faae08" d="M592.25,383c-2-12-19.5-7.94-19.5-7.94l3,25,1-.12S594.25,395,592.25,383Z"/></g><g id="f27082e4-8653-4fa9-beb0-3c3780549b02" data-name="Shape 181 copy"><polygon class="b3d7d5b2-a9ca-4f57-b495-c999b8820c10" points="389.87 104.09 385.61 103.65 203.62 215.84 273.14 335.22 277.46 335.99 462.3 224.81 389.87 104.09"/></g><path class="fadd3bfc-00d2-458b-85d6-fd877ddb0651" d="M290.37,175l.78.94s-27.42,58.78-65,89.81c-31.33,25.83-74,24.87-74,24.87"/><g id="a6c6bc5c-966a-404f-bb02-482d290437d1" data-name="Shape 2"><polygon class="bd0794b0-c698-4f6a-a991-2624272ee2c2" points="129.86 283.46 129.57 285.86 144.21 289.52 144.5 287.12 129.86 283.46 129.86 283.46"/></g><path class="fadd3bfc-00d2-458b-85d6-fd877ddb0651" d="M120.94,281c-63.44-51.24-36.37-80.67-20.51-79.86,21.56.41,40,56.28-14.87,65.22"/><g id="b9412d9d-f230-4d36-b800-7f2f10cb0135" data-name="Shape 4"><polygon class="bd0794b0-c698-4f6a-a991-2624272ee2c2" points="79.63 266.36 67.43 267.58 67.56 270.02 79.75 268.8 79.63 266.36 79.63 266.36"/></g><g id="a1e97e48-aff6-4221-9ddf-e16e6506e828" data-name="Shape 5"><polygon class="bd0794b0-c698-4f6a-a991-2624272ee2c2" points="2.01 244.54 1.22 245.48 47.58 284.52 48.37 283.58 2.01 244.54 2.01 244.54"/></g><g id="ea2f80a9-7008-4ff2-8c26-b071c96bcfd8" data-name="Shape 6"><polygon class="bd0794b0-c698-4f6a-a991-2624272ee2c2" points="65.03 241.96 0.37 244.4 0.42 245.62 65.08 244.4 65.03 241.96 65.03 241.96"/></g><g id="bae4c66b-521b-4acc-911b-0a02cff8ea26" data-name="Shape 7"><polygon class="bd0794b0-c698-4f6a-a991-2624272ee2c2" points="63.33 243.45 53.57 258.09 54.58 259.99 64.34 245.35 63.33 243.45 63.33 243.45"/></g><g id="bd285567-5b06-4b84-a6d2-c58677c523e7" data-name="Shape 8"><polygon class="bd0794b0-c698-4f6a-a991-2624272ee2c2" points="52.26 264.38 47.38 283.9 49.78 284.2 54.66 264.68 52.26 264.38 52.26 264.38"/></g><g id="f56ef61f-4138-48ff-b774-8bfc44599280" data-name="Shape 13"><path class="b8ba039f-e678-4902-8272-8324d4071686" d="M49.19,264.53l11-17.08L0,250.36l46.36,39,.79-.94s.92-13.19,1.52-20.28c.08-.89,9,.75,9.06,0C57.92,266,49.19,264.53,49.19,264.53Z"/></g><g id="a5eef84e-c866-44f6-bb2f-151308a136d7" data-name="Shape 9"><polygon class="bd0794b0-c698-4f6a-a991-2624272ee2c2" points="1.82 245.66 1.4 246.8 51.42 266.32 51.84 263.96 1.82 245.66 1.82 245.66"/></g><g id="fbe9b6fd-5630-430d-a606-6cb21af2c1ad" data-name="Shape 10"><polygon class="bd0794b0-c698-4f6a-a991-2624272ee2c2" points="1.76 245.64 1.47 246.82 55.15 261.46 55.44 259.06 1.76 245.64 1.76 245.64"/></g><g id="ee256920-cc5f-42d9-9267-c33d62cfec96" data-name="Shape 11"><polygon class="bd0794b0-c698-4f6a-a991-2624272ee2c2" points="54.51 260.44 52.42 261.3 58.52 267.4 60.6 266.54 54.51 260.44 54.51 260.44"/></g><g id="a0ddf568-65d2-44ba-bd47-59a9b3c6b429" data-name="Shape 12"><polygon class="bd0794b0-c698-4f6a-a991-2624272ee2c2" points="50.56 263.94 50.27 266.34 60.03 268.78 60.32 266.38 50.56 263.94 50.56 263.94"/></g><g id="a9370ded-aee6-40c0-89d0-947cf8a06671" data-name="Shape 182 copy 2"><polygon class="b164a65e-8711-4548-8a62-d9d97b12a4c9" points="414.69 141.68 228.73 256.37 239.15 273.54 425.11 158.85 414.69 141.68"/></g><g id="ec8f5f66-f47c-4b41-b1ec-467f43c30586" data-name="Shape 181"><rect class="bd0794b0-c698-4f6a-a991-2624272ee2c2" x="220.69" y="148.71" width="217.21" height="140.78" transform="translate(-65.8 200.65) rotate(-30.96)"/></g><g id="bcf30353-a318-48cd-a1d0-6f7206ae7856" data-name="Shape 182"><polygon class="b5d6cad2-f726-48dc-b57b-3a48affe56f0" points="411.03 142.9 225.07 257.59 235.49 274.76 421.45 160.07 411.03 142.9"/></g><g id="b2b84e9c-93a2-4178-84f9-b5c17f60bd87" data-name="Shape 182 copy 3"><path class="a25fcacb-ff40-4020-8a3b-2e07383984b5" d="M248.18,243.34l-23.11,14.25,10.42,17.17,18-11.13Z"/></g><g id="b114b265-86d2-4657-a7f7-7bda00589f92" data-name="Shape 182 copy 4"><path class="a25fcacb-ff40-4020-8a3b-2e07383984b5" d="M295.76,213.83l-23.11,14.26,3.1,22s14.22-9.14,25.37-16Z"/></g><g id="b4f4b65f-e230-434d-9e60-8e5ea574d716" data-name="Shape 182 copy 5"><path class="a25fcacb-ff40-4020-8a3b-2e07383984b5" d="M354.32,178.45,331.21,192.7l3.1,21.06s14.23-9.14,25.37-16Z"/></g><g id="e9cfa15f-5dec-456f-9b13-182de5c8d5ae" data-name="Shape 182 copy"><polygon class="b7f1bca0-571c-4264-906d-4245040551ee" points="429.14 174.3 245.62 291.43 248.85 296.52 432.37 179.4 429.14 174.3"/></g><path class="b6a797e2-f13f-4b91-ac17-c9b0db3f6bd5" d="M451.4,214.68c-.69.85-79.91,26.6-78.73-17.52,20.53-54.63,131.28-.62,131.28-.62"/><g id="f10c6599-d4e3-436e-88bd-e96b7b3a386a" data-name="Shape 189" class="b6fb8220-6150-4674-9f30-6cf3739c438e"><path class="a296262c-1718-404e-8dba-23b508323dfd" d="M804.43,361.52s-32.47,8.62-59.83,6.71c-25-1.74-45.09-14-45.09-14l-4.93,59.17s28.31-11.18,53.68-7.32c30.31,4.61,58.57,24.4,58.57,24.4Z"/></g><g id="a33c75c7-f116-4550-89f7-ff1d9d4893ae" data-name="Shape 193"><path class="a9be267b-5b04-4851-b67d-b6e5ab97bccd" d="M374.19,197.26l0-.06C375.06,185.3,374.19,197.26,374.19,197.26Zm34.13-23.79c-26.7,1.82-33.69,22.43-34.11,23.73,0,.4,0,.82-.09,1.28-1,14,12.44,12.72,26.13,13.52,13.24.78,35-10.88,51-12,27.41-1.91,52.14-2.74,52.14-2.74S453.82,170.36,408.32,173.47Z"/><path class="a5fee96f-ac22-4aeb-912f-9cb75031ee5b" d="M374.19,197.26l0-.06C375.06,185.3,374.19,197.26,374.19,197.26Zm34.13-23.79c-26.7,1.82-33.69,22.43-34.11,23.73,0,.4,0,.82-.09,1.28-1,14,12.44,12.72,26.13,13.52,13.24.78,35-10.88,51-12,27.41-1.91,52.14-2.74,52.14-2.74S453.82,170.36,408.32,173.47Z"/></g><g id="ae48dd51-3b4a-4427-b2d6-2560f820ff83" data-name="Ellipse 1"><path class="f0b815bf-3dfd-4d68-9c83-a07a7c8d784d" d="M578.69,148.78a35.53,35.53,0,1,1,35.53-35.53A35.57,35.57,0,0,1,578.69,148.78Z"/><path class="ede5f247-5d7c-43c6-92dd-03cc48e7b277" d="M578.69,81.22a32,32,0,1,1-32,32,32.07,32.07,0,0,1,32-32m0-7a39,39,0,1,0,39,39,39,39,0,0,0-39-39Z"/></g><path class="ed2aa923-5615-463f-bd2a-ae8409095e14" d="M618.54,83a48.22,48.22,0,0,1-11.73,70"/><path class="ed2aa923-5615-463f-bd2a-ae8409095e14" d="M571.35,160a48.26,48.26,0,0,1-32.63-23.31"/><path class="b8fc7732-de31-4c39-96ea-bd8aba416638" d="M574.29,126.56l-1.73-.72a6.67,6.67,0,0,1-2.84-2.17,9.54,9.54,0,0,1-1.62-3.73l3.85-1.42a5.92,5.92,0,0,0,1.69,3.12,4.57,4.57,0,0,0,3.09,1,5,5,0,0,0,3.4-1,3.73,3.73,0,0,0,1.15-3v-1.39a3.34,3.34,0,0,0-.62-2.08,4.3,4.3,0,0,0-1.61-1.27,19.31,19.31,0,0,0-2.57-.94l-.07,0a.08.08,0,0,1-.07,0l-.17-.06-.16,0a25.33,25.33,0,0,1-3.8-1.43,6.08,6.08,0,0,1-2.46-2.26,7.65,7.65,0,0,1-1-4.23V104a9.09,9.09,0,0,1,1-4.36A6,6,0,0,1,572.53,97a10.78,10.78,0,0,1,4.67-.89,9.52,9.52,0,0,1,3.64.63,6.1,6.1,0,0,1,2.52,1.93,9,9,0,0,1,1.53,3.28l-3.71,1.46a5.42,5.42,0,0,0-1.5-2.59,3.63,3.63,0,0,0-2.48-.84,4.83,4.83,0,0,0-3.28,1,3.56,3.56,0,0,0-1.11,2.85v1a3.31,3.31,0,0,0,.66,2.15,4.42,4.42,0,0,0,1.63,1.27,27.67,27.67,0,0,0,2.72,1,.88.88,0,0,1,.23.07.73.73,0,0,0,.24.07l.17.06.18.07a18.4,18.4,0,0,1,3.49,1.4,6.25,6.25,0,0,1,2.31,2.29,7.86,7.86,0,0,1,.94,4.14v1.38a8.78,8.78,0,0,1-1,4.31,6.15,6.15,0,0,1-2.91,2.64,11.45,11.45,0,0,1-4.77.88Zm.59-33.76h4v4.68h-4Zm0,32.14h4v4.94h-4Z"/><g id="ec442fec-ad32-495f-b163-21ebe52c81c4" data-name="Shape 1"><polygon class="ad7443a6-2030-4a93-aaa3-a2ae34b14a8a" points="804.11 258.35 802.65 527.53 806.31 527.53 806.55 258.35 804.11 258.35"/></g><g id="b7a85cee-39f8-4b5e-a7e9-37c30529e39a" data-name="Shape 2"><path class="ad7443a6-2030-4a93-aaa3-a2ae34b14a8a" d="M837.17,353.6c-12.38-21.39-34.91,59.57-34.91,59.57l.53.83S849.55,375,837.17,353.6Z"/></g><g id="bd00cd9c-bb89-454b-96f9-130ce79ff8b6" data-name="Shape 3"><path class="ad7443a6-2030-4a93-aaa3-a2ae34b14a8a" d="M767.56,288.9c-22.32,23.22,36.65,64.92,36.65,64.92l1.06-.61S789.89,265.69,767.56,288.9Z"/></g><g id="e3be5509-1f22-4d36-af97-5b3688c5f15f" data-name="Shape 9 copy"><path class="ad7443a6-2030-4a93-aaa3-a2ae34b14a8a" d="M787.81,206.36a35.54,35.54,0,0,1,3.83-1.11C799.65,202.67,821.23,195.71,787.81,206.36Zm16.56,75.84,1.19-.26-.46-2.12C804.65,281.34,804.37,282.2,804.37,282.2Zm-12.73-76.95-2.63.84,16.09,73.73C809.23,266,828.23,196.67,791.64,205.25Z"/></g><g id="f2222f40-f9c5-4d41-9421-2c7afe8a28c3" data-name="Shape 184 copy"><polygon class="fdb9db29-73f6-4c1e-b7c7-e5a63710d54c" points="453.8 212.22 452.94 183.17 453.71 183.14 456.22 213.13 453.8 212.22"/><path class="fdb9db29-73f6-4c1e-b7c7-e5a63710d54c" d="M454.61,206l.48,5.66-.31-.12-.17-5.54m0-23.88-2.71.1.9,30.72,4.52,1.71-2.71-32.53Z"/></g><g id="bd2c320b-235d-4931-8c39-84987050f0c1" data-name="Shape 184 copy 2"><polygon class="fdb9db29-73f6-4c1e-b7c7-e5a63710d54c" points="486.06 304.32 486.61 303.87 505.88 324.97 505.77 325.58 486.06 304.32"/><polygon class="fdb9db29-73f6-4c1e-b7c7-e5a63710d54c" points="486.7 302.49 484.61 304.22 506.39 327.72 506.96 324.67 486.7 302.49 486.7 302.49"/></g><g id="e9af5122-1eec-49ed-831e-3a5d399eb707" data-name="Shape 3 copy"><path class="af3bf15f-3f16-43f3-a6c3-c569daddc2c7" d="M767.56,288.9l.05,0S767.56,288.85,767.56,288.9Zm.05,0c1.35.85,36.6,65,36.6,65l1.06-.61S789.91,265.81,767.61,288.86Z"/></g><g id="bde93a76-514c-42a3-a490-2693e103e94b" data-name="Rounded Rectangle 23 copy 5"><path class="a287c6dd-72c7-47f3-8d62-25255e7cb373" d="M200.75,526h-29a1.5,1.5,0,0,0,0,3h29a1.5,1.5,0,0,0,0-3Z"/></g><g id="a9d4e811-8761-4526-b74a-1f081426612e" data-name="Rounded Rectangle 23 copy 5"><path class="a287c6dd-72c7-47f3-8d62-25255e7cb373" d="M836.76,526h-614a1.5,1.5,0,0,0,0,3h614a1.5,1.5,0,0,0,0-3Z"/></g></g></g></svg>