<svg xmlns="http://www.w3.org/2000/svg" viewBox="0 0 32.15 34.31"><g data-name="Layer 2"><path d="M10.6 34.27h15.49a3.88 3.88 0 003.52-3.88 3.75 3.75 0 00-.16-1.1 3.9 3.9 0 002.28-3.53 3.84 3.84 0 00-.61-2.09 3.86 3.86 0 001-2.63A3.36 3.36 0 0031 18.37a4.11 4.11 0 00.92-2.74A3.49 3.49 0 0028.65 12h-8.83a18 18 0 00.34-5.28C19.81 2.82 17.91.11 15.43 0a5.9 5.9 0 00-3.15.47.73.73 0 00-.33.76c.36 1.76.8 4.93.47 6C11.19 11 7 15.78 6 16.86H.73a.73.73 0 00-.73.72v14.2a.73.73 0 00.73.72.72.72 0 00.72-.72v2.53h4.16v-1.49H1.45v-7.19a.72.72 0 00-.72-.73.73.73 0 00-.73.73v7.92a.73.73 0 00.73.72h5.61" fill="#9395a9" data-name="layer 1"/></g></svg>