<svg xmlns="http://www.w3.org/2000/svg" viewBox="0 0 27 25"><defs><clipPath id="clip-path"><path class="cls-1" d="M13.84 4.24A5.73 5.73 0 0118 2.5c3.64 0 6.5 3 6.5 7.16 0 2.51-1.24 4.59-3.52 6.85-.49.48-2 1.86-2.06 1.92l-.68.63-1 .82c-.7.58-1.45 1.16-2.19 1.71l-.73.53-.27.2a1 1 0 01-1.16 0l-.27-.2-.73-.53c-.74-.55-1.49-1.13-2.19-1.71l-1-.82-.68-.63C8 18.37 6.51 17 6 16.51c-2.26-2.26-3.5-4.34-3.5-6.85C2.5 5.47 5.36 2.5 9 2.5a5.73 5.73 0 014.16 1.74c.12.12.24.24.34.36.1-.12.22-.24.34-.36z"/></clipPath><style>.cls-1{fill:#9395a9}</style></defs><g id="Layer_2" data-name="Layer 2"><g id="Layer_1-2" data-name="Layer 1"><path class="cls-1" d="M13.84 4.24A5.73 5.73 0 0118 2.5c3.64 0 6.5 3 6.5 7.16 0 2.51-1.24 4.59-3.52 6.85-.49.48-2 1.86-2.06 1.92l-.68.63-1 .82c-.7.58-1.45 1.16-2.19 1.71l-.73.53-.27.2a1 1 0 01-1.16 0l-.27-.2-.73-.53c-.74-.55-1.49-1.13-2.19-1.71l-1-.82-.68-.63C8 18.37 6.51 17 6 16.51c-2.26-2.26-3.5-4.34-3.5-6.85C2.5 5.47 5.36 2.5 9 2.5a5.73 5.73 0 014.16 1.74c.12.12.24.24.34.36.1-.12.22-.24.34-.36z"/><g clip-path="url(#clip-path)"><path class="cls-1" d="M0 0h27v25H0z"/></g></g></g></svg>