<svg xmlns="http://www.w3.org/2000/svg" viewBox="0 0 47.03 46.47"><defs><style>.cls-1{opacity:.22}.cls-4{fill:#373956;stroke:#373956;stroke-miterlimit:10;stroke-width:.75px}</style></defs><g id="Layer_2" data-name="Layer 2"><g id="layer_1-2" data-name="layer 1"><ellipse cx="25.28" cy="19.79" rx="19.85" ry="19.79" fill="#7e4cad" id="Ellipse_1_copie_3" data-name="Ellipse 1 copie 3"/><path d="M34.34 23.24a11.85 11.85 0 00-12.08 11.61 11.86 11.86 0 0012.08 11.62 11.86 11.86 0 0012.09-11.62 11.86 11.86 0 00-12.09-11.61z" fill="#a9acf6" id="Ellipse_8_copie_2" data-name="Ellipse 8 copie 2"/><path class="cls-4" d="M6.46 9.25a17.59 17.59 0 1117.62 28.86.73.73 0 00.19 1.43h.19a19.24 19.24 0 004.78-2.06l6.7 6.7a.74.74 0 001 0 .74.74 0 000-1l-6.49-6.49a19.09 19.09 0 004.43-4.45l10.5 10.5a.74.74 0 001 0 .74.74 0 000-1L35.72 31A19 19 0 005.39 8.26a.73.73 0 001.07 1zM19.42 40.19a.73.73 0 00.73-.73.73.73 0 00-.73-.72A17.6 17.6 0 013.86 12.93a.73.73 0 00-.3-1 .74.74 0 00-1 .3 19.07 19.07 0 0016.86 27.96z"/><path class="cls-4" d="M23.44 16.93a.73.73 0 00-1 .16l-4.26 6.05-1.8-2.09a.73.73 0 00-1.17.87l2.39 2.87a.7.7 0 00.58.3.73.73 0 00.59-.3L23.59 18a.73.73 0 00-.15-1.07z"/><path class="cls-4" d="M20.94 8.53a13.3 13.3 0 00-1.55-.09 12.5 12.5 0 105.53 1.29.6.6 0 00-.82.27.62.62 0 00.28.83 11.28 11.28 0 11-5-1.16 12.66 12.66 0 011.39.08.61.61 0 00.69-.53.62.62 0 00-.52-.69z"/></g></g></svg>