<svg xmlns="http://www.w3.org/2000/svg" viewBox="0 0 44.86 48.9"><defs><style>.cls-1{opacity:.22}.cls-4{fill:#373956;stroke:#373956;stroke-miterlimit:10;stroke-width:.75px}</style></defs><g id="Layer_2" data-name="Layer 2"><g id="layer_1-2" data-name="layer 1"><path d="M24.36 0a20.58 20.58 0 1020.5 20.58A20.54 20.54 0 0024.36 0z" fill="#7e4cad" id="Ellipse_1_copie_5" data-name="Ellipse 1 copie 5"/><ellipse cx="31.93" cy="33.1" rx="12.48" ry="12.08" fill="#a9acf6" id="Ellipse_8_copie_4" data-name="Ellipse 8 copie 4"/><path class="cls-4" d="M35.89 36.33a.73.73 0 00-.73.73v8.8A1.21 1.21 0 0134 47.07H3a1.21 1.21 0 01-1.21-1.21v-26.1A.73.73 0 001.1 19a.72.72 0 00-.72.72v26.1A2.66 2.66 0 003 48.52h31a2.67 2.67 0 002.67-2.66v-8.8a.73.73 0 00-.78-.73zM34 3.52H23.39a.73.73 0 000 1.46h3.05v1.21a2.19 2.19 0 01-2.19 2.18H12.74a2.19 2.19 0 01-2.18-2.18V5h8a.73.73 0 00.73-.73c0-.4-.32-.73.27-.73H4C1.57 3.52.38 4.72.38 6.19v8.72a.73.73 0 00.72.73.73.73 0 00.73-.73V6.19A1.21 1.21 0 013 5h6.1v1.19a3.65 3.65 0 003.64 3.64h11.51a3.65 3.65 0 003.64-3.64V5H34a1.21 1.21 0 011.21 1.21v26a.73.73 0 001.46 0v-26A2.68 2.68 0 0034 3.52z"/><path class="cls-4" d="M30.1 16.77h-7.48a.73.73 0 000 1.46h7.48a.73.73 0 100-1.46zM6.16 17.5a.73.73 0 00.73.73h10.88a.73.73 0 000-1.46H6.89a.73.73 0 00-.73.73zM30.1 27.77h-7.48a.73.73 0 000 1.46h7.48a.73.73 0 100-1.46zM6.16 28.5a.73.73 0 00.73.73h10.88a.73.73 0 000-1.46H6.89a.73.73 0 00-.73.73zM30.1 22.59H16.39a.73.73 0 000 1.46H30.1a.73.73 0 100-1.46zM6.89 24.05h4.65a.73.73 0 000-1.46H6.89a.73.73 0 100 1.46zM22.37 36.35a.72.72 0 00-1 .15l-4.26 6-1.81-2.09a.73.73 0 10-1.17.87l2.39 2.87a.72.72 0 001.17 0l4.85-6.84a.71.71 0 00-.17-.96z"/></g></g></svg>