<svg xmlns="http://www.w3.org/2000/svg" viewBox="0 0 27 27"><defs><clipPath id="clip-path"><path class="cls-1" d="M2.5 5A2.5 2.5 0 015 2.5h1A2.5 2.5 0 018.5 5v17A2.5 2.5 0 016 24.5H5A2.5 2.5 0 012.5 22V5zm8 6A2.5 2.5 0 0113 8.5h1a2.5 2.5 0 012.5 2.5v11a2.5 2.5 0 01-2.5 2.5h-1a2.5 2.5 0 01-2.5-2.5V11zm8 6a2.5 2.5 0 012.5-2.5h1a2.5 2.5 0 012.5 2.5v5a2.5 2.5 0 01-2.5 2.5h-1a2.5 2.5 0 01-2.5-2.5v-5z"/></clipPath><style>.cls-1{fill:#9395a9}</style></defs><g id="Layer_2" data-name="Layer 2"><g id="Layer_1-2" data-name="Layer 1"><path class="cls-1" d="M2.5 5A2.5 2.5 0 015 2.5h1A2.5 2.5 0 018.5 5v17A2.5 2.5 0 016 24.5H5A2.5 2.5 0 012.5 22V5zm8 6A2.5 2.5 0 0113 8.5h1a2.5 2.5 0 012.5 2.5v11a2.5 2.5 0 01-2.5 2.5h-1a2.5 2.5 0 01-2.5-2.5V11zm8 6a2.5 2.5 0 012.5-2.5h1a2.5 2.5 0 012.5 2.5v5a2.5 2.5 0 01-2.5 2.5h-1a2.5 2.5 0 01-2.5-2.5v-5z"/><g clip-path="url(#clip-path)"><path class="cls-1" d="M0 0h27v27H0z"/></g></g></g></svg>