<svg xmlns="http://www.w3.org/2000/svg" viewBox="0 0 50.4 52.2"><defs><style>.cls-1{opacity:.22}.cls-4{fill:#373956;stroke:#373956;stroke-miterlimit:10;stroke-width:.75px}</style></defs><g id="Layer_2" data-name="Layer 2"><g id="layer_1-2" data-name="layer 1"><path d="M29.9 0a20.58 20.58 0 1020.5 20.58A20.54 20.54 0 0029.9 0z" fill="#7e4cad" id="Ellipse_1_copie_5" data-name="Ellipse 1 copie 5"/><ellipse cx="37.48" cy="33.1" rx="12.48" ry="12.08" fill="#a9acf6" id="Ellipse_8_copie_4" data-name="Ellipse 8 copie 4"/><path class="cls-4" d="M41.43 37.09a.72.72 0 00-1 .25A18 18 0 0139.34 39a.73.73 0 00.15 1 .71.71 0 001-.15 20.77 20.77 0 001.18-1.76.73.73 0 00-.24-1zM36.66 41.88c-.35.31-.71.6-1.08.88a18.44 18.44 0 01-10.48 3.7v-2.94a.73.73 0 10-1.45 0v2.95a18.68 18.68 0 01-4.77-.8.74.74 0 00-.91.48.73.73 0 00.48.91 19.85 19.85 0 005.2.86v3.18a.73.73 0 101.45 0v-3.18a19.93 19.93 0 0011.35-4c.4-.3.79-.62 1.17-1a.72.72 0 00.07-1 .73.73 0 00-1.03-.04zM14.74 43.82a18.54 18.54 0 01-9-15.27h2.94a.73.73 0 00.73-.72.73.73 0 00-.73-.73H1.1a.73.73 0 00-.72.73.72.72 0 00.72.72h3.18A20 20 0 0014 45.07a.75.75 0 00.38.1.73.73 0 00.37-1.35zM47.65 27.1h-3.18a19.94 19.94 0 00-3.42-10.54.73.73 0 00-1-.19.73.73 0 00-.2 1A18.42 18.42 0 0143 27.1h-2.93a.73.73 0 00-.73.73.73.73 0 00.73.72h3a18.43 18.43 0 01-.55 3.86q-.16.69-.39 1.35a.73.73 0 00.46.92.93.93 0 00.23 0 .74.74 0 00.69-.5c.16-.48.3-1 .42-1.45a19.87 19.87 0 00.59-4.22h3.18a.73.73 0 00.73-.72.73.73 0 00-.78-.69zM5.32 24.14h.16a.73.73 0 00.71-.57A18.56 18.56 0 0123.65 9.19v3a.73.73 0 001.45 0v-3a18.51 18.51 0 019.62 3.1.73.73 0 001-.2.72.72 0 00-.2-1A20.08 20.08 0 0025.1 7.73V4.55a.73.73 0 00-1.45 0v3.19A20 20 0 004.77 23.27a.73.73 0 00.55.87z"/><path class="cls-4" d="M36.74 27.83a12.27 12.27 0 00-.42-3.2.73.73 0 00-1.4.38 11.07 11.07 0 01.36 2.82 10.91 10.91 0 11-10.9-10.91 10.76 10.76 0 012.82.37.73.73 0 00.38-1.41 12.37 12.37 0 109.16 11.95z"/></g></g></svg>