<svg xmlns="http://www.w3.org/2000/svg" viewBox="0 0 95.57 109.84"><defs><style>.a71b348d-dd22-4eff-9532-ba2bb2e94396{fill:#7e4cad;}.a71b348d-dd22-4eff-9532-ba2bb2e94396,.e1702ba1-8b76-458d-b41d-659e16dd9e16{opacity:0.22;}.e1702ba1-8b76-458d-b41d-659e16dd9e16{fill:#a9acf6;}.f2f7c831-931a-4ea6-9b66-18a782c09170{fill:#373956;stroke:#373956;stroke-miterlimit:10;stroke-width:0.75px;}</style></defs><title>icon2</title><g id="b8445297-8aee-4409-8ae5-702c3772fa9f" data-name="Layer 2"><g id="b45d2f73-a7e8-4949-9b6d-c90264580b17" data-name="layer 1"><circle class="a71b348d-dd22-4eff-9532-ba2bb2e94396" cx="54.14" cy="41.42" r="41.42"/><circle class="e1702ba1-8b76-458d-b41d-659e16dd9e16" cx="69.77" cy="65.98" r="24.55"/><path class="f2f7c831-931a-4ea6-9b66-18a782c09170" d="M73.87,84.23a1.51,1.51,0,0,0-1.51,1.5v18.21a2.5,2.5,0,0,1-2.5,2.51h-64a2.5,2.5,0,0,1-2.5-2.51V50a1.51,1.51,0,1,0-3,0v54a5.52,5.52,0,0,0,5.51,5.52h64a5.52,5.52,0,0,0,5.52-5.52V85.73A1.51,1.51,0,0,0,73.87,84.23Z"/><path class="f2f7c831-931a-4ea6-9b66-18a782c09170" d="M69.86,16.34H48a1.51,1.51,0,1,0,0,3H54.3v2.51a4.52,4.52,0,0,1-4.51,4.52H26a4.53,4.53,0,0,1-4.52-4.52V19.35H38a1.51,1.51,0,0,0,1.51-1.5c0-.83-.68-1.51.56-1.51H8c-5.11,0-7.58,2.48-7.58,5.52v18a1.51,1.51,0,1,0,3,0v-18a2.51,2.51,0,0,1,2.5-2.51H18.44v2.51A7.53,7.53,0,0,0,26,29.39H49.79a7.53,7.53,0,0,0,7.52-7.53V19.35H69.86a2.51,2.51,0,0,1,2.5,2.51V75.7a1.51,1.51,0,0,0,3,0V21.86A5.53,5.53,0,0,0,69.86,16.34Z"/><path class="f2f7c831-931a-4ea6-9b66-18a782c09170" d="M61.89,43.76H46.4a1.51,1.51,0,1,0,0,3H61.89a1.51,1.51,0,1,0,0-3Z"/><path class="f2f7c831-931a-4ea6-9b66-18a782c09170" d="M12.35,45.27a1.51,1.51,0,0,0,1.51,1.5h22.5a1.51,1.51,0,1,0,0-3H13.86A1.51,1.51,0,0,0,12.35,45.27Z"/><path class="f2f7c831-931a-4ea6-9b66-18a782c09170" d="M61.89,66.52H46.4a1.51,1.51,0,1,0,0,3H61.89a1.51,1.51,0,1,0,0-3Z"/><path class="f2f7c831-931a-4ea6-9b66-18a782c09170" d="M12.35,68a1.51,1.51,0,0,0,1.51,1.5h22.5a1.51,1.51,0,1,0,0-3H13.86A1.52,1.52,0,0,0,12.35,68Z"/><path class="f2f7c831-931a-4ea6-9b66-18a782c09170" d="M61.89,55.8H33.52a1.51,1.51,0,1,0,0,3H61.89a1.51,1.51,0,1,0,0-3Z"/><path class="f2f7c831-931a-4ea6-9b66-18a782c09170" d="M13.86,58.81h9.63a1.51,1.51,0,0,0,0-3H13.86a1.51,1.51,0,1,0,0,3Z"/><path class="f2f7c831-931a-4ea6-9b66-18a782c09170" d="M45.9,84.27a1.49,1.49,0,0,0-2.1.31L35,97.1l-3.73-4.31a1.51,1.51,0,1,0-2.42,1.79l5,6a1.51,1.51,0,0,0,2.41,0l10-14.16A1.49,1.49,0,0,0,45.9,84.27Z"/></g></g></svg>