<svg xmlns="http://www.w3.org/2000/svg" viewBox="0 0 97 101.5"><defs><style>.b0865671-fbdc-4e58-841e-d37901f50f85{fill:#7e4cad;}.b0865671-fbdc-4e58-841e-d37901f50f85,.b8f7c130-593b-4cb5-8e87-93341defdb99{opacity:0.22;}.b8f7c130-593b-4cb5-8e87-93341defdb99{fill:#a9acf6;}.ee50b571-f169-4f49-8efd-1f98d185c600{fill:#373956;stroke:#373956;stroke-miterlimit:10;}</style></defs><title>Increase</title><g id="b1b40d41-7c33-47f6-b11c-c1ace40bb2bb" data-name="Layer 2"><g id="a466b6a9-65a3-4101-abe6-01d381fc7857" data-name="layer 1"><circle class="b0865671-fbdc-4e58-841e-d37901f50f85" cx="55.16" cy="41.24" r="41.24"/><circle class="b8f7c130-593b-4cb5-8e87-93341defdb99" cx="69.15" cy="67.25" r="25.25"/><path class="ee50b571-f169-4f49-8efd-1f98d185c600" d="M66.54,40.43a1.46,1.46,0,0,0,0-2.91H65.06l-.09,0a1.7,1.7,0,0,0-.31.06,2.34,2.34,0,0,0-.24.09,1.12,1.12,0,0,0-.22.16,1,1,0,0,0-.22.19s0,0-.07.06l-12.79,17-17.45-.21a1.58,1.58,0,0,0-1,.43L14.89,73a1.45,1.45,0,0,0,0,2.06,1.45,1.45,0,0,0,2.06,0l17.3-17.27,17.58.2A1.54,1.54,0,0,0,53,57.45l12.79-17Z"/><path class="ee50b571-f169-4f49-8efd-1f98d185c600" d="M72.93,40.36h0l2.4,0a1.46,1.46,0,0,0,0-2.91h0l-2.41,0a1.46,1.46,0,0,0,0,2.91Z"/><path class="ee50b571-f169-4f49-8efd-1f98d185c600" d="M81.74,40.28h0l1.45,0a1.4,1.4,0,0,0,.65-.17L84,40a1.56,1.56,0,0,0,.38-.39l.08-.08L96.31,18.33a1.45,1.45,0,1,0-2.53-1.42L82.33,37.36h-.61a1.46,1.46,0,0,0,0,2.91Z"/><path class="ee50b571-f169-4f49-8efd-1f98d185c600" d="M46.71,92.27H40.36V62.94a1.46,1.46,0,1,0-2.91,0V92.27H24.79V74.57a1.46,1.46,0,0,0-2.91,0v17.7H9.23V6.45a1.46,1.46,0,0,0-2.91,0V15H2a1.46,1.46,0,0,0,0,2.91H6.32V30.55H2a1.46,1.46,0,0,0,0,2.91H6.32V46.11H2A1.46,1.46,0,0,0,2,49H6.32V61.68H2a1.46,1.46,0,0,0,0,2.91H6.32V77.24H2a1.46,1.46,0,0,0,0,2.91H6.32V92.27H2a1.46,1.46,0,0,0,0,2.91H6.32v4.36a1.46,1.46,0,1,0,2.91,0V95.18H46.71a1.46,1.46,0,0,0,0-2.91Z"/><path class="ee50b571-f169-4f49-8efd-1f98d185c600" d="M95,92.27H86.52V45.48a1.46,1.46,0,0,0-2.91,0V92.27H55.92V62.94a1.46,1.46,0,1,0-2.91,0V93.72h0a1.45,1.45,0,0,0,1.45,1.45H95a1.46,1.46,0,1,0,0-2.91Z"/><path class="ee50b571-f169-4f49-8efd-1f98d185c600" d="M70,87.42A1.45,1.45,0,0,0,71.48,86V45.48a1.46,1.46,0,0,0-2.91,0V86A1.45,1.45,0,0,0,70,87.42Z"/></g></g></svg>