<svg xmlns="http://www.w3.org/2000/svg" viewBox="0 0 101.25 100.58"><defs><style>.f11d01a7-4654-4e4f-9404-16f15f7fb782{fill:#7e4cad;}.a6dd850c-70d6-4991-b7c2-d6ce50021dd9,.f11d01a7-4654-4e4f-9404-16f15f7fb782{opacity:0.22;}.a6dd850c-70d6-4991-b7c2-d6ce50021dd9{fill:#a9acf6;}.bf9dc393-a212-42ea-8980-475d9e91c000{fill:#373956;stroke:#373956;stroke-miterlimit:10;stroke-width:0.5px;}</style></defs><title>Optimize</title><g id="be8a5bed-40d5-46a9-a9e4-d268ebf18162" data-name="Layer 2"><g id="f32b5142-0066-4dac-a071-435a17cebe33" data-name="layer 1"><circle class="f11d01a7-4654-4e4f-9404-16f15f7fb782" cx="55.01" cy="41.24" r="41.24"/><circle class="a6dd850c-70d6-4991-b7c2-d6ce50021dd9" cx="76" cy="74.25" r="25.25"/><path class="bf9dc393-a212-42ea-8980-475d9e91c000" d="M90.08,74.31V29.78A14.16,14.16,0,0,0,96.25,18a14.35,14.35,0,0,0-8.18-12.9A1.45,1.45,0,0,0,86,6.45V17.31a9.19,9.19,0,0,1-8.07,0V6.45a1.46,1.46,0,0,0-2.07-1.31A14.35,14.35,0,0,0,67.69,18a14.16,14.16,0,0,0,6.17,11.74V74.31a14.15,14.15,0,0,0-6,9.79s0,.16,0,.17a14.93,14.93,0,0,0-.12,1.83c0,.46,0,.91.08,1.45A14.36,14.36,0,0,0,75.87,99a1.66,1.66,0,0,0,.38.11A14.12,14.12,0,0,0,82,100.33a14.27,14.27,0,0,0,5.71-1.2,1.94,1.94,0,0,0,.39-.12,14.42,14.42,0,0,0,8.11-11.55c0-.45.07-.9.07-1.42a15.93,15.93,0,0,0-.14-1.94A14.19,14.19,0,0,0,90.08,74.31Zm3.22,13a11.44,11.44,0,0,1-6.12,9,1.61,1.61,0,0,0-.35.12,11.33,11.33,0,0,1-9.72,0,1,1,0,0,0-.34-.11,11.49,11.49,0,0,1-6.13-9A10.13,10.13,0,0,1,70.58,86a10.33,10.33,0,0,1,.11-1.45v-.1a11.36,11.36,0,0,1,5.36-8.17,1.43,1.43,0,0,0,.69-1.23V29a1.44,1.44,0,0,0-.69-1.23A11.36,11.36,0,0,1,75.05,9v9.14a1.43,1.43,0,0,0,.7,1.24,12,12,0,0,0,12.44,0,1.44,1.44,0,0,0,.71-1.24V9a11.37,11.37,0,0,1-1,18.75A1.46,1.46,0,0,0,87.19,29V75.09a1.45,1.45,0,0,0,.69,1.23,11.44,11.44,0,0,1,5.39,8.31,13.18,13.18,0,0,1,.09,1.47C93.36,86.47,93.34,86.83,93.3,87.26Z"/><path class="bf9dc393-a212-42ea-8980-475d9e91c000" d="M86.11,80.32a1.44,1.44,0,0,0-1.25-.72H79.08a1.44,1.44,0,0,0-1.25.72l-2.89,5a1.48,1.48,0,0,0,0,1.44l2.89,5a1.44,1.44,0,0,0,1.25.72h5.78a1.44,1.44,0,0,0,1.25-.72l2.89-5a1.43,1.43,0,0,0,0-1.44ZM84,89.61H79.92l-2.06-3.56,2.06-3.56H84l2,3.56Z"/><path class="bf9dc393-a212-42ea-8980-475d9e91c000" d="M60.26,44.5a1.43,1.43,0,0,0-1.2-1.19l-8.94-1.42c-.14-.35-.29-.71-.45-1.07L55,33.49a1.43,1.43,0,0,0,0-1.68,29.84,29.84,0,0,0-6.93-6.94,1.44,1.44,0,0,0-1.69,0L39,30.19c-.35-.16-.71-.31-1.07-.45L36.55,20.8a1.44,1.44,0,0,0-1.19-1.2,29.84,29.84,0,0,0-9.8,0,1.42,1.42,0,0,0-1.19,1.2l-1.43,8.94-1.07.45-7.34-5.32a1.44,1.44,0,0,0-1.69,0,30,30,0,0,0-6.92,6.94,1.43,1.43,0,0,0,0,1.68l5.32,7.33c-.16.35-.31.71-.44,1.07L1.86,43.31A1.42,1.42,0,0,0,.66,44.5a29.55,29.55,0,0,0,0,9.81,1.42,1.42,0,0,0,1.2,1.18l8.94,1.43c.13.35.28.71.44,1.06L5.92,65.31a1.44,1.44,0,0,0,0,1.69,30.38,30.38,0,0,0,6.92,6.94,1.46,1.46,0,0,0,1.69,0l7.34-5.33c.34.16.7.31,1.07.45L24.37,78a1.42,1.42,0,0,0,1.19,1.2,30.21,30.21,0,0,0,9.8,0A1.44,1.44,0,0,0,36.55,78L38,69.06q.54-.21,1.08-.45l7.32,5.32a1.44,1.44,0,0,0,1.69,0A29.84,29.84,0,0,0,55,67a1.44,1.44,0,0,0,0-1.69L49.67,58c.16-.36.31-.71.45-1.06l8.94-1.43a1.42,1.42,0,0,0,1.2-1.19,29.49,29.49,0,0,0,0-9.8Zm-2.7,8.31L48.82,54.2a1.42,1.42,0,0,0-1.14,1,17.25,17.25,0,0,1-1,2.32,1.47,1.47,0,0,0,.12,1.5L52,66.15A27.49,27.49,0,0,1,47.21,71l-7.16-5.2a1.43,1.43,0,0,0-1.5-.12,17.38,17.38,0,0,1-2.33,1,1.45,1.45,0,0,0-1,1.14L33.86,76.5a27.71,27.71,0,0,1-6.81,0l-1.39-8.74a1.45,1.45,0,0,0-1-1.14,15.71,15.71,0,0,1-2.31-1,1.44,1.44,0,0,0-1.51.12L13.7,71a27.49,27.49,0,0,1-4.82-4.82L14.09,59a1.44,1.44,0,0,0,.11-1.51,17.07,17.07,0,0,1-1-2.31,1.44,1.44,0,0,0-1.14-1L3.36,52.81a26.54,26.54,0,0,1,0-6.82l8.74-1.38a1.47,1.47,0,0,0,1.14-1,15.94,15.94,0,0,1,1-2.31,1.47,1.47,0,0,0-.12-1.5L8.88,32.66a27.15,27.15,0,0,1,4.82-4.82L20.87,33a1.44,1.44,0,0,0,1.48.13,17.14,17.14,0,0,1,2.34-1,1.47,1.47,0,0,0,1-1.15l1.39-8.74a26.76,26.76,0,0,1,6.81,0L35.25,31a1.46,1.46,0,0,0,1,1.15,17,17,0,0,1,2.33,1A1.45,1.45,0,0,0,40.05,33l7.16-5.2A27.15,27.15,0,0,1,52,32.66l-5.2,7.16a1.43,1.43,0,0,0-.13,1.49,17.92,17.92,0,0,1,1,2.33,1.45,1.45,0,0,0,1.14,1L57.56,46a26.54,26.54,0,0,1,0,6.82Z"/><path class="bf9dc393-a212-42ea-8980-475d9e91c000" d="M40.57,49.36A10.11,10.11,0,1,0,30.46,59.51a1.44,1.44,0,0,0,1-.43h0s0-.07.06-.09a1.81,1.81,0,0,0,.24-.37,1.34,1.34,0,0,0,0-1.11,1.45,1.45,0,0,0-1.33-.89,7.22,7.22,0,1,1,7.22-7.22,1.41,1.41,0,0,0,.25.76,1.07,1.07,0,0,0,.16.25h0l.09.06a1.49,1.49,0,0,0,.94.37,1.38,1.38,0,0,0,.56-.12,1.48,1.48,0,0,0,.77-.77,1.51,1.51,0,0,0,.12-.55S40.57,49.38,40.57,49.36Z"/><path class="bf9dc393-a212-42ea-8980-475d9e91c000" d="M35.57,54.51v0a1.49,1.49,0,0,0,0,2.07,1.51,1.51,0,0,0,1,.42,1.55,1.55,0,0,0,1-.42,1.46,1.46,0,0,0,0-2.05A1.43,1.43,0,0,0,35.57,54.51Z"/></g></g></svg>