<svg xmlns="http://www.w3.org/2000/svg" viewBox="0 0 27 27"><defs><clipPath id="clip-path"><path class="cls-1" d="M12.5 7.84V3.5a1 1 0 011-1 6 6 0 016 6V11a3.41 3.41 0 01-.34 1.5h4.34a1 1 0 011 1 6 6 0 01-6 6H16a3.44 3.44 0 01-1.5-.34v4.34a1 1 0 01-1 1 6 6 0 01-6-6V16a3.44 3.44 0 01.34-1.5H3.5a1 1 0 01-1-1 6 6 0 016-6H11a3.44 3.44 0 011.5.34z"/></clipPath><style>.cls-1{fill:#9395a9}</style></defs><g id="Layer_2" data-name="Layer 2"><g id="Layer_1-2" data-name="Layer 1"><path class="cls-1" d="M12.5 7.84V3.5a1 1 0 011-1 6 6 0 016 6V11a3.41 3.41 0 01-.34 1.5h4.34a1 1 0 011 1 6 6 0 01-6 6H16a3.44 3.44 0 01-1.5-.34v4.34a1 1 0 01-1 1 6 6 0 01-6-6V16a3.44 3.44 0 01.34-1.5H3.5a1 1 0 01-1-1 6 6 0 016-6H11a3.44 3.44 0 011.5.34z"/><g clip-path="url(#clip-path)"><path class="cls-1" d="M0 0h27v27H0z"/></g></g></g></svg>