<svg xmlns="http://www.w3.org/2000/svg" viewBox="0 0 27 27"><defs><clipPath id="clip-path"><path class="cls-1" d="M19.48 3.21a2.44 2.44 0 013.45 0l.85.84a2.41 2.41 0 010 3.44l-6 6 6 6a2.43 2.43 0 010 3.45l-.85.84a2.44 2.44 0 01-3.45 0l-6-6-6 6a2.45 2.45 0 01-3.45 0L3.22 23a2.41 2.41 0 010-3.44l6-6-6-6a2.43 2.43 0 010-3.45l.85-.84a2.46 2.46 0 013.46 0l6 6 6-6z"/></clipPath><style>.cls-1{fill:#9395a9}</style></defs><g id="Layer_2" data-name="Layer 2"><g id="Layer_1-2" data-name="Layer 1"><path class="cls-1" d="M19.48 3.21a2.44 2.44 0 013.45 0l.85.84a2.41 2.41 0 010 3.44l-6 6 6 6a2.43 2.43 0 010 3.45l-.85.84a2.44 2.44 0 01-3.45 0l-6-6-6 6a2.45 2.45 0 01-3.45 0L3.22 23a2.41 2.41 0 010-3.44l6-6-6-6a2.43 2.43 0 010-3.45l.85-.84a2.46 2.46 0 013.46 0l6 6 6-6z"/><g clip-path="url(#clip-path)"><path class="cls-1" d="M0 0h27v27H0z"/></g></g></g></svg>